<svg version="1.2" preserveAspectRatio="xMidYMid meet" viewBox="32.25598848 387.071983648 1237.248 936.5759604340001" zoomAndPan="magnify" xmlns:xlink="http://www.w3.org/1999/xlink" xmlns="http://www.w3.org/2000/svg" style="max-height: 500px" width="1237.248" height="936.5759604340001"><defs><clipPath id="f5c38ea655"><path d="M 40 399 L 1249 399 L 1249 1302 L 40 1302 Z M 40 399"/></clipPath><clipPath id="61d814fdf2"><path d="M 1047.652344 1453.601562 L -133.804688 1095.617188 L 147.410156 167.535156 L 1328.863281 525.523438 Z M 1047.652344 1453.601562"/></clipPath><clipPath id="d5fa1e9e28"><path d="M 1047.652344 1453.601562 L -133.804688 1095.617188 L 147.410156 167.535156 L 1328.863281 525.523438 Z M 1047.652344 1453.601562"/></clipPath></defs><g id="91220d2e49"><rect style="fill:#00000000;fill-opacity:1;stroke:none;" height="1727.999927" y="0" width="1296" x="0"/><rect style="fill:#00000000;fill-opacity:1;stroke:none;" height="1727.999927" y="0" width="1296" x="0"/><g clip-path="url(#f5c38ea655)" clip-rule="nonzero"><g clip-path="url(#61d814fdf2)" clip-rule="nonzero"><g clip-path="url(#d5fa1e9e28)" clip-rule="nonzero"><path d="M 592.148438 925.890625 C 591.679688 927.4375 591.210938 928.984375 590.484375 930.449219 C 584.941406 939.460938 578.804688 948.578125 573.515625 957.667969 C 569.527344 964.335938 566.566406 971.316406 562.835938 978.0625 C 559.101562 984.8125 555.703125 991.378906 552.230469 998.203125 C 549.558594 1003.304688 547.222656 1008.222656 544.8125 1013.402344 C 540.398438 1023.320312 536.066406 1032.980469 531.910156 1042.976562 C 530.871094 1045.472656 530.09375 1048.050781 529.054688 1050.550781 C 528.351562 1052.871094 527.46875 1054.851562 526.328125 1056.757812 C 522.648438 1062.398438 522.5 1069.386719 519.777344 1075.59375 C 516.191406 1084.636719 513.382812 1093.914062 511.085938 1103.347656 C 508.21875 1113.734375 505.097656 1124.042969 502.746094 1134.585938 C 500.082031 1146.160156 497.9375 1157.890625 496.046875 1169.695312 C 495.359375 1175.679688 494.929688 1181.738281 495.09375 1187.695312 C 495.023438 1194.429688 494.953125 1201.160156 494.882812 1207.890625 C 494.515625 1219.316406 496.445312 1230.59375 500.570312 1241.128906 C 504.4375 1251.585938 512.410156 1259.628906 522.742188 1263.601562 C 526.527344 1265.03125 530.082031 1267.234375 534.125 1268.742188 C 542.039062 1271.417969 550.261719 1273.066406 558.539062 1273.605469 C 565.449219 1274.011719 572.59375 1273.644531 579.382812 1272.605469 C 587.457031 1271.957031 595.765625 1270.535156 603.535156 1268.105469 C 608.105469 1266.957031 612.953125 1266.738281 617.21875 1263.8125 C 617.554688 1263.632812 618.144531 1263.53125 618.480469 1263.351562 C 622.199219 1262.226562 625.839844 1261.359375 629.554688 1260.234375 C 634.28125 1258.570312 638.824219 1256.570312 643.292969 1254.828125 C 645.484375 1254.085938 647.679688 1253.347656 649.875 1252.605469 C 658.574219 1249.894531 665.65625 1244.160156 673.996094 1240.78125 C 676.605469 1239.601562 679.035156 1238.085938 681.285156 1236.234375 C 683.296875 1235.15625 685.492188 1234.414062 687.765625 1233.414062 C 688.4375 1233.054688 689.546875 1233.109375 690.039062 1232.417969 C 693.066406 1227.988281 698.050781 1226.402344 702.570312 1223.550781 C 707.09375 1220.703125 710.761719 1217.875 715.027344 1214.945312 C 719.289062 1212.019531 723.789062 1208.316406 728.386719 1205.207031 C 731.230469 1203.253906 734.175781 1201.898438 736.835938 1199.609375 C 742.007812 1195.546875 746.816406 1190.816406 751.988281 1186.753906 C 755.65625 1183.925781 759.664062 1180.921875 763.152344 1177.757812 C 768.636719 1172.664062 774.65625 1168.582031 780.574219 1163.902344 C 782.074219 1162.667969 783.394531 1161.101562 784.714844 1159.53125 C 790.609375 1154 795.992188 1148.316406 801.886719 1142.785156 C 807.78125 1137.257812 813.835938 1131.214844 819.371094 1125.011719 C 821.933594 1122.132812 825.109375 1120 827.929688 1117.195312 C 832.820312 1112.207031 837.527344 1106.878906 842.496094 1101.632812 C 845.46875 1098.3125 848.445312 1094.992188 851.417969 1091.675781 C 853.902344 1089.050781 856.207031 1086.089844 858.511719 1083.128906 C 859.832031 1081.5625 861.40625 1080.070312 862.726562 1078.5 C 865.625 1075.4375 868.34375 1072.042969 871.496094 1069.058594 C 873.074219 1067.566406 874.652344 1066.074219 876.566406 1064.402344 L 876.027344 1063.394531 C 879.90625 1058.945312 883.710938 1054.75 887.332031 1050.222656 C 892.511719 1043.351562 897.867188 1036.8125 903.5625 1030.097656 C 906.691406 1026.261719 909.644531 1022.09375 912.082031 1017.765625 C 912.574219 1017.070312 912.550781 1016.21875 912.527344 1015.367188 C 911.941406 1012.660156 912.460938 1010.003906 914.015625 1007.660156 C 914.429688 1007.222656 914.585938 1006.707031 914.484375 1006.113281 C 912.617188 1000.203125 915.703125 994.667969 916.3125 988.941406 C 917.179688 983.296875 918.382812 977.46875 920.097656 971.800781 C 922.136719 962.289062 924.253906 952.519531 926.292969 943.007812 C 927.570312 936.925781 929.367188 930.996094 930.90625 924.992188 C 932.835938 917.699219 934.25 910.25 936.433594 903.03125 C 939.246094 893.753906 942.058594 884.476562 945.125 875.277344 C 949.078125 864.09375 953.207031 853.246094 957.160156 842.066406 C 960.71875 832.171875 964.28125 822.277344 968.355469 812.539062 C 971.785156 804.011719 975.132812 795.738281 978.742188 787.546875 C 981.625 780.824219 984.761719 774.179688 987.902344 767.53125 C 994.101562 754.5 1000.300781 741.464844 1006.761719 728.507812 C 1011.117188 719.699219 1015.734375 710.96875 1020.347656 702.238281 C 1026.75 690.390625 1033.335938 678.882812 1039.996094 667.113281 C 1040.722656 665.644531 1041.628906 664.511719 1042.789062 663.457031 C 1044.546875 662.300781 1045.945312 660.476562 1046.054688 658.257812 C 1046.757812 655.9375 1048.054688 653.515625 1049.453125 651.6875 C 1055.667969 642.316406 1061.882812 632.945312 1068.101562 623.574219 C 1068.179688 623.316406 1068.179688 623.316406 1068.511719 623.136719 C 1075.496094 616.8125 1079.257812 608.105469 1085.546875 601.289062 C 1090.667969 595.523438 1095.09375 589.269531 1099.960938 583.425781 C 1104.824219 577.585938 1110.363281 571.386719 1115.484375 565.621094 C 1123.246094 556.71875 1131.804688 548.902344 1141.238281 541.914062 C 1142.324219 541.117188 1143.152344 540.242188 1144.316406 539.1875 C 1153.390625 531.527344 1163.183594 525.207031 1175.128906 522.917969 C 1182.925781 521.34375 1190.78125 525.128906 1194.886719 532 C 1196.324219 534.6875 1197.425781 537.554688 1197.597656 540.699219 C 1197.707031 547.769531 1196.371094 554.960938 1193.828125 561.503906 C 1193.257812 562.457031 1192.6875 563.410156 1192.375 564.441406 C 1191.882812 565.136719 1191.726562 565.652344 1191.75 566.503906 C 1192.695312 569.882812 1192.117188 573.648438 1190.070312 576.6875 C 1188.59375 578.769531 1188.507812 581.839844 1187.652344 584.675781 C 1185.910156 589.492188 1183.574219 594.414062 1182.347656 599.386719 C 1180.808594 605.394531 1178.421875 611.421875 1176.367188 617.269531 C 1174.703125 621.832031 1172.34375 625.898438 1170.425781 630.382812 C 1167.855469 636.074219 1165.722656 642.183594 1163.15625 647.875 C 1161.15625 652.617188 1158.382812 657.121094 1157.671875 662.253906 C 1154.417969 664.640625 1154.535156 668.898438 1152.746094 672.015625 C 1150.957031 675.128906 1149.863281 678.738281 1148.074219 681.855469 C 1143.59375 689.21875 1141.351562 697.542969 1137.386719 705.0625 C 1135.027344 709.132812 1132.847656 713.535156 1130.925781 718.019531 C 1129.03125 723.351562 1125.664062 727.960938 1124.28125 733.449219 C 1123.757812 736.105469 1122.460938 738.527344 1120.730469 740.53125 C 1118.167969 743.414062 1119.058594 747.90625 1115.363281 749.878906 C 1114.832031 755.347656 1110.335938 759.050781 1109.109375 764.023438 C 1107.992188 766.78125 1106.695312 769.199219 1104.808594 771.722656 C 1101.777344 776.152344 1100.910156 781.796875 1096.847656 785.914062 C 1094.523438 788.023438 1093.867188 792.042969 1092.59375 795.316406 C 1092.4375 795.832031 1092.125 796.863281 1091.789062 797.042969 C 1089.023438 798.734375 1088.601562 801.984375 1087.644531 804.226562 C 1085.410156 809.738281 1081.964844 814.605469 1079.808594 819.859375 C 1077.632812 824.265625 1075.453125 828.667969 1072.757812 832.917969 C 1068.691406 839.84375 1065.496094 847.597656 1061.429688 854.527344 C 1057.695312 861.273438 1053.011719 867.449219 1049.355469 873.941406 C 1047.980469 876.617188 1045.140625 878.570312 1044.898438 882.15625 C 1044.765625 883.523438 1043.007812 884.679688 1042.023438 886.066406 C 1040.367188 887.816406 1038.890625 889.902344 1037.929688 892.144531 C 1037.328125 895.054688 1034.722656 896.234375 1034.097656 898.296875 C 1032.847656 902.421875 1029.769531 905.144531 1027.648438 908.441406 C 1024.875 912.949219 1021.84375 917.375 1018.816406 921.804688 C 1016.589844 924.503906 1014.542969 927.542969 1013.011719 930.738281 C 1012.542969 932.285156 1010.609375 933.105469 1009.625 934.492188 C 1007.164062 937.96875 1004.703125 941.445312 1002.679688 945.332031 C 1000.144531 949.066406 997.347656 952.722656 994.550781 956.375 C 992.507812 959.414062 990.460938 962.453125 988.414062 965.488281 C 986.289062 968.785156 983.910156 972.003906 981.269531 975.140625 C 976.324219 981.242188 971.898438 987.496094 967.90625 994.164062 C 966.175781 996.171875 964.183594 998.101562 962.191406 1000.03125 C 961.363281 1000.90625 961.050781 1001.933594 960.480469 1002.886719 C 960.246094 1003.660156 960.113281 1005.027344 959.777344 1005.207031 C 956.140625 1006.074219 956.078125 1009.996094 954.007812 1012.179688 C 951.9375 1014.367188 950.84375 1017.976562 948.417969 1019.492188 C 944.902344 1021.800781 944.066406 1025.488281 941.507812 1028.371094 C 936.304688 1034.390625 936.484375 1034.726562 935.585938 1042.332031 C 934.101562 1056.515625 934.503906 1070.984375 936.679688 1085.152344 C 937.164062 1087.269531 937.984375 1089.203125 938.804688 1091.140625 C 939.265625 1092.40625 939.726562 1093.671875 940.523438 1094.757812 C 940.984375 1096.023438 941.703125 1097.363281 942.757812 1098.527344 C 947.566406 1103.082031 954.113281 1105.625 960.84375 1105.695312 C 968.425781 1105.742188 975.804688 1104.601562 983.0625 1102.019531 C 991.347656 1099.746094 999.429688 1096.285156 1006.792969 1091.484375 C 1010.640625 1088.992188 1015.1875 1086.992188 1019.21875 1084.835938 C 1026.089844 1080.730469 1032.601562 1075.949219 1038.417969 1070.679688 C 1042.996094 1066.71875 1048.007812 1063.171875 1052.40625 1058.878906 C 1058.714844 1052.910156 1064.921875 1046.351562 1071.234375 1040.386719 C 1076.222656 1035.988281 1080.855469 1030.921875 1084.710938 1025.617188 C 1086.859375 1023.171875 1089.007812 1020.730469 1091.667969 1018.441406 C 1096.300781 1013.371094 1100.75 1007.96875 1105.460938 1002.644531 C 1110.167969 997.316406 1114.542969 992.171875 1118.914062 987.023438 C 1119.898438 985.632812 1121.0625 984.578125 1122.046875 983.191406 C 1125.75 978.402344 1129.191406 973.539062 1132.894531 968.75 C 1135.945312 965.171875 1138.820312 961.261719 1141.4375 957.269531 C 1143.300781 953.898438 1146.042969 951.351562 1147.730469 947.640625 C 1150.144531 942.464844 1154.539062 938.167969 1157.90625 933.5625 C 1159.382812 931.476562 1160.675781 929.054688 1161.972656 926.632812 C 1163.996094 922.746094 1166.019531 918.855469 1168.121094 914.710938 C 1169.570312 911.773438 1170.84375 908.5 1172.554688 905.640625 C 1176.234375 900.003906 1179.136719 894.132812 1181.605469 887.84375 C 1181.839844 887.070312 1182.332031 886.375 1183.082031 885.761719 C 1184.738281 884.011719 1185.957031 881.847656 1186.734375 879.269531 C 1189.359375 872.46875 1192.421875 866.082031 1195.300781 859.355469 C 1198.183594 852.632812 1200.808594 845.832031 1203.429688 839.027344 C 1205.5625 832.921875 1207 826.324219 1209.132812 820.214844 C 1211.808594 812.304688 1213.972656 804.238281 1215.285156 796.195312 C 1216.988281 786.863281 1217.734375 776.960938 1219.179688 767.550781 C 1220.3125 759.171875 1221.703125 750.871094 1223.351562 742.648438 C 1224.554688 736.820312 1233.363281 731.894531 1238.59375 733.199219 C 1242.382812 734.625 1245.441406 737.523438 1247.082031 741.398438 C 1248.902344 745.605469 1249.457031 750.277344 1248.386719 754.734375 C 1247.574219 759.273438 1247.792969 764.121094 1247.238281 768.738281 C 1246.964844 774.28125 1246.175781 779.671875 1244.617188 784.824219 C 1243.445312 788.691406 1242.789062 792.710938 1242.726562 796.632812 C 1242.390625 806.097656 1239.398438 815.039062 1236.488281 823.722656 C 1235.628906 826.558594 1235.285156 829.546875 1234.503906 832.125 C 1232.550781 838.566406 1230.601562 845.011719 1228.828125 851.789062 C 1225.3125 854.101562 1227.671875 859.316406 1223.898438 861.550781 C 1223.914062 865.214844 1221.613281 868.171875 1220.339844 871.445312 C 1219.660156 874.617188 1218.285156 877.292969 1216.394531 879.816406 C 1215.410156 881.207031 1214.605469 882.933594 1214.0625 884.734375 C 1213.335938 886.203125 1212.867188 887.75 1212.140625 889.21875 C 1210.6875 892.15625 1208.640625 895.191406 1207.1875 898.128906 C 1207.03125 898.644531 1207.570312 899.652344 1207.648438 899.394531 C 1205.628906 903.285156 1203.839844 906.398438 1202.308594 909.59375 C 1201.347656 911.835938 1201.160156 914.308594 1198.550781 915.488281 C 1197.878906 915.847656 1197.644531 916.621094 1197.488281 917.136719 C 1196.234375 924.070312 1191.1875 929.578125 1188.902344 936.199219 C 1188.667969 936.972656 1188.175781 937.667969 1187.425781 938.285156 C 1183.910156 940.597656 1182.917969 944.796875 1181.308594 948.25 C 1180.351562 950.492188 1178.953125 952.316406 1177.554688 954.144531 C 1173.671875 958.597656 1171.363281 964.367188 1167.917969 969.234375 C 1167.347656 970.1875 1165.050781 970.335938 1164.816406 971.109375 C 1164.582031 971.878906 1165.144531 973.738281 1163.285156 974.300781 C 1162.953125 974.480469 1162.617188 974.660156 1162.539062 974.917969 C 1161.671875 980.566406 1156.296875 983.4375 1153.785156 988.023438 C 1153.214844 988.976562 1152.722656 989.671875 1151.972656 990.289062 C 1148.480469 993.449219 1145.6875 997.105469 1143.40625 1000.914062 C 1139.15625 1007.507812 1132.902344 1012.363281 1128.832031 1019.292969 C 1126.398438 1023.617188 1122.054688 1026.804688 1118.488281 1030.226562 C 1115.589844 1033.285156 1111.738281 1035.777344 1109.617188 1039.074219 C 1107.828125 1042.1875 1105.601562 1044.890625 1102.859375 1047.4375 C 1099.035156 1050.777344 1095.722656 1054.277344 1092.335938 1058.035156 C 1088.945312 1061.789062 1085.273438 1064.617188 1082.144531 1068.453125 C 1077.589844 1073.261719 1072.9375 1077.480469 1067.945312 1081.875 C 1064.378906 1085.296875 1060.886719 1088.460938 1056.882812 1091.464844 C 1052.046875 1095.347656 1047.214844 1099.230469 1042.199219 1102.773438 C 1035.765625 1107.296875 1029.230469 1111.222656 1022.613281 1115.410156 C 1018.84375 1117.644531 1014.890625 1119.542969 1011.019531 1121.179688 C 1007.144531 1122.820312 1003.347656 1124.203125 999.554688 1125.585938 C 986.902344 1130.195312 974.074219 1134.464844 960.171875 1133.910156 C 953.699219 1133.917969 947.433594 1132.304688 941.742188 1129.734375 C 938.546875 1128.203125 934.863281 1127.367188 931.589844 1126.09375 C 929.605469 1125.214844 928.039062 1123.894531 926.546875 1122.316406 C 923.382812 1118.824219 920.476562 1115.414062 917.652344 1111.742188 C 914.902344 1107.8125 912.902344 1103.269531 912.347656 1098.597656 C 911.863281 1096.484375 911.121094 1094.289062 910.378906 1092.09375 C 907.996094 1086.027344 908.503906 1079.707031 907.902344 1073.335938 C 907.878906 1072.484375 907.597656 1071.554688 907.214844 1070.035156 C 904.34375 1073.945312 901.210938 1077.78125 897.898438 1081.277344 C 893.660156 1085.058594 892.300781 1091.398438 886.929688 1094.273438 C 884.578125 1095.53125 883.304688 1098.804688 881.492188 1101.066406 C 880.097656 1102.894531 878.441406 1104.644531 876.605469 1106.058594 C 875.027344 1107.550781 875.199219 1110.695312 871.871094 1110.53125 C 869.15625 1113.929688 866.617188 1117.664062 863.640625 1120.980469 C 860.589844 1124.558594 857.613281 1127.878906 854.121094 1131.039062 C 851.125 1133.507812 849.4375 1137.21875 845.539062 1138.007812 C 845.28125 1137.929688 845.203125 1138.1875 845.125 1138.445312 C 842.839844 1145.066406 836.535156 1148.222656 832.421875 1153.445312 C 828.617188 1157.640625 824.558594 1161.753906 820.238281 1165.792969 C 816.101562 1170.164062 811.445312 1174.382812 806.433594 1177.929688 C 804.003906 1179.441406 801.933594 1181.628906 800.125 1183.894531 C 794.171875 1190.53125 787.269531 1196.601562 780.085938 1201.738281 C 776.75 1204.386719 773.339844 1207.292969 769.824219 1209.601562 C 764.886719 1212.890625 761.445312 1217.757812 755.636719 1220.214844 C 752.535156 1222.089844 749.949219 1224.121094 747.464844 1226.746094 C 742.476562 1231.140625 736.871094 1234.789062 731.519531 1238.515625 C 726.171875 1242.238281 719.714844 1245.910156 713.847656 1249.480469 C 706.148438 1254.460938 698.652344 1260.628906 689.796875 1263.855469 C 688.273438 1264.238281 686.75 1264.621094 684.96875 1264.925781 C 683.773438 1267.941406 679.980469 1269.324219 676.699219 1270.859375 C 672.15625 1272.859375 668.304688 1275.351562 663.582031 1277.015625 C 660.121094 1278.21875 657.121094 1280.6875 653.125 1280.882812 C 650.492188 1281.210938 648.21875 1282.207031 646.386719 1283.621094 C 641.707031 1286.988281 635.851562 1287.746094 630.53125 1289.511719 C 623.019531 1292.019531 615.070312 1294.109375 607.457031 1296.023438 C 595.273438 1299.085938 582.886719 1300.960938 570.199219 1301.054688 C 558.953125 1301.023438 547.683594 1300.140625 536.648438 1298.484375 C 536.054688 1298.585938 535.539062 1298.429688 535.027344 1298.273438 C 522.375 1293.597656 509.230469 1289.613281 498.34375 1280.96875 C 490.957031 1275.636719 484.890625 1268.734375 480.578125 1260.675781 C 476.703125 1253.03125 474.019531 1245.179688 472.597656 1236.871094 C 472.550781 1235.167969 471.574219 1233.75 471.527344 1232.046875 C 471.042969 1229.929688 469.707031 1227.835938 470.746094 1225.339844 C 471.316406 1224.386719 470.597656 1223.042969 470.394531 1221.855469 C 469.308594 1213.367188 468.738281 1205.035156 469.097656 1196.421875 C 469.316406 1182.699219 470.644531 1169.035156 473.078125 1155.421875 C 475.445312 1139.257812 478.839844 1123.402344 483.347656 1107.605469 C 485.355469 1100.054688 487.023438 1092.683594 489.03125 1085.128906 C 490.359375 1080.75 492.125 1076.78125 493.453125 1072.402344 C 495.425781 1066.808594 497.144531 1061.140625 498.941406 1055.214844 C 502.632812 1043.953125 507.101562 1032.925781 512.339844 1022.132812 C 516.519531 1012.988281 520.953125 1003.921875 524.875 994.699219 C 529.832031 982.976562 536 971.902344 542.25 960.570312 C 547.277344 951.402344 552.386719 941.976562 557.671875 932.886719 C 561.660156 926.21875 566.089844 919.964844 570.335938 913.371094 C 574.015625 907.734375 577.695312 902.09375 581.527344 895.941406 C 579.386719 895.574219 577.09375 895.722656 574.820312 896.722656 C 571.28125 898.183594 567.902344 899.128906 564.261719 899.996094 C 557.164062 902.066406 550.324219 904.210938 543.300781 906.023438 C 532.898438 908.78125 522.0625 911.125 512.019531 914.554688 C 503.242188 917.519531 494.058594 918.113281 485.101562 920.746094 C 480.945312 921.457031 476.792969 922.167969 472.792969 922.363281 C 463.039062 923.910156 453.128906 925.972656 443.453125 927.261719 C 434.628906 928.523438 425.882812 929.53125 417.214844 930.28125 C 405.140625 931.125 393.070312 931.96875 381.152344 932.296875 C 374.34375 932.484375 367.429688 932.082031 360.699219 932.011719 C 357.035156 932.027344 353.296875 932.300781 349.632812 932.316406 C 340.425781 932.058594 331.296875 931.542969 322.167969 931.027344 C 309.195312 930.191406 296.304688 929.097656 283.589844 928.339844 C 266.699219 927.445312 250.253906 924.148438 233.570312 921.625 C 226.480469 920.886719 219.703125 919.113281 213.238281 916.308594 C 208.058594 913.894531 202.414062 913.03125 197.078125 911.132812 C 191.152344 909.335938 185.796875 906.585938 181.085938 902.628906 C 178.304688 900.660156 175.683594 898.175781 173.316406 895.773438 C 171.644531 893.859375 171.394531 890.96875 169.800781 888.796875 C 165.179688 881.769531 164.945312 873.257812 163.367188 865.464844 C 162.9375 862.238281 163.101562 858.914062 163.859375 855.484375 C 164.917969 844.550781 167.527344 834.085938 171.503906 823.753906 C 176.148438 813.0625 180.871094 802.117188 186.292969 791.660156 C 188.9375 785.707031 192.460938 780.585938 196.9375 776.03125 C 199.496094 773.148438 201.878906 769.933594 204.003906 766.636719 C 205.894531 764.113281 208.039062 761.671875 210.367188 759.5625 C 218.152344 751.511719 225.757812 743.125 233.722656 735.40625 C 238.535156 730.675781 242.390625 725.371094 248.078125 721.46875 C 252.675781 718.359375 256.378906 713.574219 260.617188 709.792969 C 265.609375 705.394531 270.855469 701.078125 276.027344 697.015625 C 282.101562 691.824219 288.175781 686.628906 294.589844 681.257812 C 299.164062 677.296875 304 673.417969 308.832031 669.535156 C 317.492188 662.3125 326.691406 656.09375 335.96875 649.621094 C 343.746094 644.378906 350.726562 638.054688 358.144531 632.144531 C 361.816406 629.316406 366.003906 626.644531 369.929688 623.894531 C 378.199219 617.960938 386.289062 611.691406 394.738281 606.089844 C 402.339844 600.515625 410.296875 595.609375 418.074219 590.371094 C 420.582031 588.597656 423.523438 587.238281 426.210938 585.800781 L 426.007812 584.613281 C 421.828125 584.472656 417.808594 583.816406 413.550781 583.933594 C 409.296875 584.050781 405.992188 584.738281 401.992188 584.933594 C 395.777344 585.019531 389.304688 585.027344 382.988281 584.523438 C 377.285156 584.765625 371.664062 584.75 366.195312 584.21875 C 362.871094 584.054688 359.128906 584.328125 355.902344 584.757812 C 346.617188 584.757812 337.589844 584.835938 328.304688 584.835938 C 324.902344 584.929688 321.496094 585.023438 317.832031 585.039062 C 315.875 585.007812 313.835938 585.234375 311.875 585.203125 C 305.996094 585.109375 299.777344 585.195312 293.898438 585.101562 C 285.542969 584.820312 276.929688 584.460938 268.316406 584.101562 C 264.988281 583.9375 261.40625 583.695312 257.898438 583.195312 C 245.933594 581.824219 233.835938 581.816406 222.007812 579.074219 C 218.242188 578.496094 214.398438 578.175781 210.660156 578.449219 C 206.816406 578.128906 202.976562 577.808594 199.210938 577.230469 C 190.652344 575.765625 182.117188 575.148438 173.480469 573.9375 C 168.863281 573.382812 164.328125 572.570312 159.710938 572.015625 C 156.980469 571.75 154.167969 571.742188 151.175781 571.398438 C 145.789062 570.609375 140.554688 569.308594 135.425781 568.597656 C 132.769531 568.074219 130.214844 568.144531 127.484375 567.878906 C 125.34375 567.511719 123.28125 566.886719 121.140625 566.519531 C 114.980469 565.496094 109.078125 564.550781 102.992188 563.269531 C 93.558594 560.976562 84.046875 558.9375 75.105469 555.945312 C 67.632812 553.683594 59.847656 552.449219 52.585938 548.558594 C 46.195312 545.5 41.855469 539.398438 41.074219 532.691406 C 39.886719 523.609375 47.429688 519.144531 55.964844 519.757812 C 61.945312 520.445312 67.953125 521.984375 73.308594 524.734375 C 77.535156 526.578125 81.65625 527.824219 86.117188 528.894531 C 93.152344 530.746094 100.34375 532.082031 107.460938 533.675781 C 110.628906 534.355469 114.214844 534.59375 117.386719 535.273438 C 118.671875 535.664062 119.882812 536.3125 121.25 536.445312 C 130.582031 538.148438 139.835938 540.109375 149.425781 541.886719 C 157.90625 543.613281 166.285156 544.746094 175.082031 545.441406 C 183.4375 545.722656 191.425781 548.144531 199.523438 548.34375 C 207.878906 548.625 216.335938 549.5 224.378906 550.8125 C 238.070312 552.992188 252.046875 553.289062 265.738281 555.464844 C 271.203125 555.996094 276.828125 556.011719 282.269531 555.691406 C 289.515625 555.917969 296.507812 556.066406 303.753906 556.292969 C 309.375 556.308594 314.84375 556.839844 320.542969 556.597656 C 330.5 556.238281 340.792969 555.699219 350.851562 555.933594 C 356.136719 556.128906 361.144531 555.394531 366.429688 555.589844 C 371.046875 556.144531 375.816406 556.183594 380.488281 555.628906 C 382.011719 555.246094 383.914062 556.386719 385.953125 556.160156 C 389.359375 556.066406 392.917969 555.457031 396.324219 555.363281 C 402.796875 555.355469 409.273438 555.34375 416.003906 555.414062 C 419.253906 555.835938 422.476562 555.40625 425.421875 554.050781 C 427.515625 552.714844 429.777344 554.523438 432.152344 554.117188 C 435.972656 553.585938 440.226562 553.46875 444.304688 553.019531 C 450.417969 552.339844 456.457031 551.917969 462.671875 551.832031 C 464.890625 551.9375 467.027344 552.304688 469.089844 552.929688 C 471.878906 552.085938 474.308594 550.574219 476.445312 550.941406 C 479.179688 551.203125 481.96875 550.363281 484.398438 548.847656 C 495.375 542.324219 506.097656 535.726562 517.15625 528.949219 C 520.59375 526.894531 523.949219 525.097656 527.386719 523.042969 C 536.195312 518.117188 544.824219 512.851562 553.914062 508.855469 C 560.136719 505.957031 565.667969 502.566406 571.453125 499.253906 C 577.238281 495.945312 583.207031 492.96875 589.25 489.734375 C 596.558594 486.042969 603.609375 482.269531 610.921875 478.574219 C 618.230469 474.882812 625.539062 471.1875 633.207031 468.164062 C 642.632812 463.988281 652.160156 460.402344 661.507812 456.484375 C 666.644531 454.382812 671.683594 451.6875 676.640625 449.25 C 677.648438 448.710938 678.453125 446.984375 679.867188 448.820312 C 680.125 448.898438 680.71875 448.796875 681.054688 448.617188 C 686.503906 445.488281 692.136719 442.691406 698.046875 440.824219 C 708.738281 436.183594 719.914062 433.664062 730.882812 429.953125 C 743.714844 425.679688 756.46875 421.667969 769.65625 418.066406 C 779.207031 415.332031 789.117188 413.269531 798.871094 411.722656 C 803.800781 411.246094 808.265625 409.507812 813.273438 408.773438 C 822.511719 407.070312 831.671875 405.625 841.089844 404.257812 C 850.507812 402.890625 859.667969 401.445312 868.671875 400.515625 C 874.785156 399.835938 881.179688 400.085938 887.398438 400 C 892.761719 399.9375 898.382812 399.953125 903.851562 400.484375 C 905.476562 400.695312 906.921875 400.570312 908.621094 400.523438 L 910.574219 403.367188 C 911.089844 403.523438 911.605469 403.679688 911.683594 403.421875 C 913.261719 401.929688 915.300781 401.703125 917.101562 402.25 C 921.484375 403.578125 926.175781 403.875 930.816406 405.277344 C 937.179688 407.488281 943.726562 410.035156 949.855469 413.015625 C 960.132812 418.101562 965.308594 429.800781 962.289062 440.699219 C 960.648438 446.113281 958.570312 451.109375 955.464844 455.796875 C 952.199219 460.996094 947.34375 464.027344 943.539062 468.222656 C 939.734375 472.414062 933.925781 474.875 929.328125 477.984375 C 923.046875 481.988281 916.410156 485.324219 909.59375 488.324219 C 901.097656 492.21875 892.421875 495.78125 883.824219 499.085938 C 877.160156 501.566406 870.320312 503.714844 863.738281 505.941406 C 856.484375 508.527344 849.070312 511.628906 841.894531 513.953125 C 836.914062 515.539062 831.570312 516.453125 826.410156 517.703125 C 824.292969 518.1875 821.449219 520.140625 819.726562 519.335938 C 816.453125 518.0625 815 521 812.445312 521.070312 C 809.972656 520.882812 807.261719 521.46875 804.730469 522.390625 C 795.921875 527.316406 786.425781 528.941406 777.03125 531.160156 C 766.035156 534.019531 755.042969 536.875 744.046875 539.734375 C 741.59375 540.398438 739.296875 540.546875 737.179688 541.03125 C 728.199219 542.8125 719.296875 544.335938 710.316406 546.117188 C 708.203125 546.601562 705.953125 548.449219 704.070312 548.160156 C 700.382812 547.328125 698.082031 550.285156 694.675781 550.378906 C 691.269531 550.472656 688.046875 550.902344 684.742188 551.589844 C 679.660156 552.582031 674.753906 553.910156 669.671875 554.902344 C 663.398438 556.097656 656.972656 557.808594 650.523438 558.667969 C 643.816406 559.449219 637.027344 560.488281 630.523438 562.453125 C 625.699219 563.523438 620.691406 564.257812 615.507812 564.65625 C 610.5 565.390625 605.316406 565.789062 600.230469 566.78125 C 592 567.945312 583.792969 569.960938 575.539062 570.273438 C 567.878906 570.484375 560.804688 573.40625 553.320312 573.953125 C 550.433594 574.203125 547.542969 574.453125 544.910156 574.78125 C 540.835938 575.234375 536.679688 575.941406 532.605469 576.394531 C 526.230469 576.996094 519.601562 577.519531 513.230469 578.121094 C 506.261719 578.824219 499.117188 579.191406 492.152344 579.894531 C 489.105469 580.660156 486.242188 581.761719 483.375 582.863281 C 481 583.269531 479.164062 584.683594 478.203125 586.925781 C 477.632812 587.878906 476.808594 588.75 475.621094 588.953125 C 469.167969 589.8125 464.695312 594.367188 459.5 597.578125 C 456.738281 599.269531 454.511719 601.972656 451.667969 603.925781 C 450.25 604.902344 448.648438 605.542969 447.125 605.925781 C 443.898438 606.355469 440.878906 607.972656 438.910156 610.75 C 438.339844 611.703125 437.691406 612.914062 435.964844 612.109375 C 435.449219 611.953125 435.113281 612.132812 434.699219 612.570312 C 431.773438 617.59375 425.65625 618.273438 422.113281 622.542969 C 420.300781 624.808594 416.738281 625.417969 413.539062 626.699219 C 411.1875 627.957031 409.015625 629.550781 407.359375 631.296875 C 403.019531 634.484375 398.496094 637.335938 394.234375 640.261719 C 391.804688 641.777344 389.554688 643.628906 387.382812 645.222656 C 374.695312 654.601562 362.082031 663.722656 349.652344 673.179688 C 343.058594 678.21875 337.085938 684.003906 330.496094 689.042969 C 323.90625 694.078125 316.875 698.703125 310.285156 703.738281 C 307.363281 705.949219 304.625 708.496094 301.882812 711.039062 C 299.140625 713.585938 297.074219 715.773438 294.488281 717.804688 C 291.980469 719.578125 289.832031 722.019531 288.125 724.878906 C 287.890625 725.652344 287.140625 726.269531 286.46875 726.628906 C 282.390625 727.082031 280.601562 730.199219 277.683594 732.40625 C 275.769531 734.078125 273.519531 735.929688 271.347656 737.523438 C 266.023438 742.097656 261.136719 747.089844 256.941406 752.570312 C 256.371094 753.523438 255.285156 754.320312 254.277344 754.859375 C 247.40625 758.96875 242.644531 765.402344 237.261719 771.085938 C 231.882812 776.773438 226.835938 782.277344 221.894531 788.378906 C 219.746094 790.820312 218.113281 793.421875 216.484375 796.023438 C 214.359375 799.320312 211.796875 802.199219 209.851562 805.832031 C 206.042969 812.835938 202.410156 820.175781 199.632812 827.496094 C 197.0625 833.1875 195.085938 838.777344 193.289062 844.707031 C 190.949219 852.4375 190.410156 860.714844 191.988281 868.507812 C 192.386719 873.695312 195.828125 878.113281 200.570312 880.113281 C 206.855469 882.582031 212.574219 886 218.78125 888.726562 C 221.617188 889.585938 224.449219 890.445312 227.441406 890.789062 C 237.03125 892.566406 246.855469 893.574219 256.210938 896.128906 C 263.246094 897.980469 270.210938 897.277344 277.148438 898.535156 C 282.457031 899.578125 287.925781 900.109375 293.390625 900.640625 C 300.816406 901.203125 308.320312 901.507812 315.75 902.070312 C 319.074219 902.234375 322.246094 902.914062 325.316406 903 C 329.234375 903.0625 333.414062 903.203125 337.332031 903.265625 C 340.144531 903.273438 342.699219 903.203125 345.429688 903.46875 C 353.96875 904.085938 362.402344 904.105469 370.734375 903.539062 C 375.324219 903.242188 380.121094 904.128906 384.789062 903.574219 C 389.460938 903.019531 393.503906 904.527344 398.152344 903.121094 C 402.046875 902.332031 405.789062 902.058594 409.710938 902.121094 C 413.449219 901.847656 417.113281 901.832031 420.851562 901.558594 C 425.1875 901.183594 429.519531 900.808594 433.855469 900.433594 C 436.152344 900.285156 438.269531 899.804688 440.640625 899.398438 C 446.242188 898.5625 451.917969 897.46875 457.515625 896.632812 C 467.863281 894.984375 478.03125 893 488.378906 891.351562 C 493.542969 890.101562 498.960938 888.929688 504.480469 888.351562 C 510.339844 887.59375 516.09375 886.242188 521.570312 883.964844 C 525.621094 882.660156 529.933594 881.433594 534.164062 880.464844 C 536.28125 879.980469 538.21875 879.160156 540.335938 878.675781 C 543.613281 877.136719 547.074219 875.933594 550.632812 875.324219 C 553.523438 875.074219 555.078125 872.734375 557.890625 872.742188 C 560.597656 872.15625 563.386719 871.3125 565.996094 870.132812 C 570.046875 868.828125 574.359375 867.601562 578.410156 866.296875 C 581.199219 865.453125 584.066406 864.351562 586.929688 863.253906 C 591.914062 861.667969 596.378906 859.925781 601.183594 858.003906 C 608.15625 854.488281 615.847656 852.320312 620.871094 845.960938 C 623.507812 842.820312 625.890625 839.605469 628.195312 836.644531 C 637.511719 825.398438 646.75 814.410156 656.066406 803.167969 C 661.835938 796.191406 667.605469 789.21875 673.816406 782.660156 C 677.617188 778.464844 681.78125 774.941406 685.246094 770.929688 C 687.730469 768.304688 689.597656 764.929688 691.902344 761.972656 C 694.203125 759.011719 697.101562 755.949219 700 752.890625 C 706.699219 745.632812 713.65625 738.457031 720.355469 731.203125 C 723.253906 728.140625 725.558594 725.179688 728.453125 722.121094 C 739.628906 710.3125 750.804688 698.503906 762.238281 686.773438 C 772.761719 676.175781 783.648438 666.25 794.097656 655.910156 C 796.246094 653.46875 798.910156 651.179688 802.109375 649.898438 C 802.703125 649.796875 803.015625 648.765625 803.6875 648.40625 C 806.09375 646.039062 808.574219 643.417969 810.980469 641.050781 C 812.558594 639.558594 814.652344 638.222656 816.230469 636.730469 C 820.960938 632.257812 826.464844 628.015625 831.996094 624.628906 C 832.667969 624.269531 833.082031 623.832031 833.496094 623.394531 C 842 616.683594 850.324219 609.640625 859.265625 603.347656 C 866.863281 597.769531 875.078125 592.945312 883.035156 588.039062 C 889.3125 584.035156 895.851562 580.105469 902.488281 576.769531 C 909.203125 573.179688 916.558594 571.1875 924.300781 570.71875 C 930 570.476562 935.433594 572.964844 938.800781 577.644531 C 939.597656 578.730469 940.058594 579.996094 940.183594 581.4375 C 941.660156 588.640625 941.691406 595.964844 940.097656 603.078125 C 938.089844 610.628906 936.601562 618.339844 932.789062 625.34375 C 932.320312 626.890625 931.851562 628.4375 931.382812 629.980469 C 929.382812 634.722656 927.308594 639.71875 925.050781 644.382812 C 924.972656 644.640625 924.972656 644.640625 924.894531 644.898438 C 919.546875 648.621094 919.734375 655.433594 916.546875 660.375 C 911.808594 667.660156 907.582031 675.105469 901.710938 681.484375 C 900.882812 682.359375 900.671875 683.984375 899.765625 685.117188 C 897.023438 687.660156 894.464844 690.542969 891.902344 693.425781 C 889.855469 696.464844 887.191406 698.75 884.890625 701.710938 C 881.757812 705.546875 878.625 709.378906 874.800781 712.722656 C 869.316406 717.8125 864.53125 723.398438 859.230469 728.824219 C 856.824219 731.191406 854.160156 733.480469 851.574219 735.511719 C 847.984375 738.078125 844.828125 741.0625 841.851562 744.382812 C 838.621094 747.621094 835.128906 750.785156 831.203125 753.535156 C 824.53125 758.828125 817.785156 764.382812 811.117188 769.675781 C 807.445312 772.503906 803.597656 774.996094 799.925781 777.820312 C 797.261719 780.109375 794.421875 782.0625 791.578125 784.015625 C 784.886719 788.457031 778.117188 793.160156 771.421875 797.601562 C 765.480469 801.429688 758.921875 804.507812 753.59375 809.082031 C 748.269531 813.660156 741.867188 816.222656 736.359375 820.460938 C 732.511719 822.953125 728.480469 825.109375 724.195312 827.1875 C 721.84375 828.441406 719.59375 830.292969 717.164062 831.808594 C 710.886719 835.816406 704.429688 839.484375 697.53125 842.742188 C 694.332031 844.023438 691.253906 846.75 687.640625 848.464844 C 681.414062 851.363281 675.628906 854.675781 669.328125 857.832031 C 662.351562 861.34375 655.042969 865.039062 648.070312 868.554688 C 643.859375 870.371094 639.652344 872.191406 635.441406 874.011719 C 633.839844 874.652344 632.421875 875.628906 631.515625 876.761719 C 621.160156 890.503906 609.851562 903.679688 600.886719 918.410156 C 599.746094 920.3125 598.609375 922.21875 597.03125 923.710938 C 594.007812 925.328125 592.820312 925.53125 592.148438 925.890625 Z M 947.675781 970.871094 C 950.492188 968.066406 953.132812 964.929688 955.335938 961.375 C 957.691406 957.304688 960.308594 953.316406 963.183594 949.402344 C 963.675781 948.707031 964.347656 948.347656 965.097656 947.730469 C 965.585938 947.035156 966.59375 946.496094 966.492188 945.902344 C 966.1875 944.125 967.195312 943.585938 968.28125 942.789062 C 969.703125 941.8125 970.6875 940.421875 971.414062 938.953125 C 973.570312 933.699219 977.628906 929.582031 981.175781 925.3125 C 983.398438 922.609375 985.367188 919.828125 987.078125 916.96875 C 989.359375 913.160156 991.378906 909.269531 993.917969 905.539062 C 995.472656 903.195312 997.722656 901.34375 999.019531 898.921875 C 1000.3125 896.503906 1004.109375 895.121094 1003.242188 891.480469 C 1007.492188 884.890625 1011.660156 878.554688 1015.910156 871.964844 C 1019.664062 866.070312 1024.375 860.742188 1026.480469 853.785156 C 1026.558594 853.527344 1026.636719 853.269531 1026.792969 852.753906 C 1032.277344 847.664062 1034.023438 840.03125 1038.375 834.035156 C 1042.132812 828.140625 1045.292969 822.34375 1048.277344 816.214844 C 1050.714844 811.886719 1053.070312 807.820312 1055.429688 803.75 C 1058.671875 797.699219 1061.472656 791.230469 1064.457031 785.101562 C 1066.894531 780.777344 1069.070312 776.371094 1071.070312 771.628906 C 1072.734375 767.070312 1076.894531 763.546875 1077.527344 758.675781 C 1077.527344 758.675781 1077.605469 758.417969 1077.941406 758.238281 C 1080.605469 755.949219 1080.847656 752.363281 1082.738281 749.84375 C 1085.09375 745.773438 1087.015625 741.292969 1088.859375 737.066406 C 1089.40625 735.261719 1090.210938 733.535156 1091.195312 732.148438 C 1093.933594 729.601562 1094.355469 726.351562 1095.550781 723.335938 C 1097.136719 719.035156 1099.496094 714.964844 1101.597656 710.820312 C 1103.28125 707.109375 1105.148438 703.734375 1107.015625 700.363281 C 1108.882812 696.988281 1110.464844 692.6875 1112.488281 688.796875 C 1115.785156 681.636719 1119.59375 674.632812 1122.710938 667.132812 C 1125.828125 659.636719 1128.863281 652.398438 1132.675781 645.394531 C 1134.699219 641.503906 1136.28125 637.199219 1138.046875 633.234375 C 1140.59375 626.691406 1142.960938 619.808594 1146.019531 613.421875 C 1148.355469 608.5 1148.628906 602.957031 1152.429688 598.761719 C 1154 590.796875 1157.890625 583.535156 1160.230469 575.804688 C 1161.636719 571.164062 1162.785156 566.449219 1164.324219 560.441406 C 1162.464844 561.003906 1160.863281 561.644531 1159.183594 562.542969 C 1154.765625 565.988281 1150.523438 569.769531 1146.027344 573.46875 C 1141.039062 577.867188 1137.796875 583.917969 1132.625 587.980469 C 1127.636719 592.375 1123.417969 597.007812 1119.304688 602.230469 C 1112.292969 610.515625 1105.71875 619.21875 1098.703125 627.503906 C 1096.816406 630.023438 1094.667969 632.46875 1092.777344 634.992188 C 1088.195312 641.761719 1083.867188 648.613281 1079.542969 655.460938 C 1077.003906 659.191406 1074.464844 662.925781 1071.925781 666.660156 C 1065.242188 677.578125 1058.636719 688.234375 1051.953125 699.152344 C 1050.734375 701.316406 1049 703.324219 1047.78125 705.488281 C 1044.542969 711.539062 1042.074219 717.824219 1038.574219 723.800781 C 1034.195312 731.757812 1031.101562 740.105469 1026.464844 747.984375 C 1022.238281 755.425781 1018.96875 763.441406 1015.515625 771.117188 C 1008.355469 786.390625 1001.375 802.003906 994.394531 817.613281 C 992.394531 822.355469 991.089844 827.585938 989.089844 832.324219 C 985.742188 840.597656 981.796875 848.96875 978.707031 857.316406 C 975.613281 865.664062 973.058594 875.019531 970.070312 883.960938 C 964.164062 901.585938 959.113281 919.1875 954.242188 937.125 C 953.171875 941.585938 952.695312 945.945312 951.367188 950.324219 C 949.3125 956.171875 947.976562 963.367188 947.675781 970.871094 Z M 545.660156 546.308594 C 548.652344 546.652344 551.460938 546.660156 554.351562 546.410156 C 558.765625 545.777344 563.253906 544.886719 567.410156 544.175781 C 570.789062 543.230469 574.09375 542.542969 577.574219 542.191406 C 587.195312 542.011719 595.972656 539.042969 605.3125 537.933594 C 608.28125 537.425781 611.25 536.917969 614.140625 536.667969 C 622.988281 536.253906 632.070312 535.066406 640.871094 532.953125 C 645.101562 531.984375 649.257812 531.273438 653.410156 530.5625 C 658.160156 529.75 662.828125 529.195312 667.65625 528.125 C 672.480469 527.054688 677.386719 525.726562 682.132812 524.914062 C 686.882812 524.101562 691.011719 522.539062 695.683594 521.984375 C 702.390625 521.203125 708.949219 518.128906 715.660156 517.347656 C 724.40625 516.339844 732.949219 514.144531 741.671875 512.285156 C 748.613281 510.730469 755.195312 508.503906 762.140625 506.953125 C 767.042969 505.625 771.789062 504.8125 776.617188 503.742188 C 783.558594 502.1875 790.296875 499.445312 797.398438 497.375 C 807.285156 494.464844 817.429688 491.628906 827.492188 489.050781 C 832.734375 487.542969 838.152344 486.371094 843.472656 484.605469 C 851.914062 481.820312 860.253906 478.4375 868.773438 475.390625 C 873.832031 473.546875 878.613281 470.777344 884.109375 469.347656 C 887.828125 468.222656 890.648438 465.417969 893.949219 464.730469 C 900.632812 463.097656 906.242188 459.453125 912.285156 456.21875 C 918.921875 452.882812 924.765625 448.464844 929.628906 442.621094 C 932.347656 439.226562 931.785156 437.367188 927.660156 436.117188 C 925.34375 435.414062 923.023438 434.710938 920.523438 433.671875 C 914.136719 430.613281 906.914062 431.238281 900.15625 430.316406 C 893.917969 429.550781 887.78125 429.378906 881.765625 430.652344 C 880.914062 430.675781 879.910156 431.214844 879.472656 430.800781 C 876.871094 429.167969 874.261719 430.347656 871.628906 430.675781 C 869.179688 431.339844 866.804688 431.746094 864.25 431.816406 C 856.386719 430.839844 849.109375 432.574219 841.652344 433.972656 C 833.007812 435.574219 824.4375 436.917969 815.535156 438.441406 C 812.3125 438.871094 809.34375 439.375 806.296875 440.140625 C 802.402344 440.929688 798.808594 443.5 794.585938 441.65625 C 794.070312 441.5 793.476562 441.601562 793.0625 442.039062 C 791.507812 444.382812 788.929688 443.601562 786.894531 443.828125 C 784.597656 443.976562 782.480469 444.460938 780.542969 445.28125 C 776.078125 447.023438 771.25 448.09375 766.683594 449.242188 C 758.398438 451.511719 750.265625 453.269531 742.339844 456.214844 C 735.679688 458.699219 728.738281 460.253906 721.976562 462.144531 L 721.351562 464.203125 C 719.390625 464.171875 717.351562 464.398438 715.570312 464.703125 C 710.332031 466.210938 705.269531 468.054688 700.390625 470.234375 C 693.753906 473.566406 686.910156 475.714844 680.171875 478.457031 C 674.957031 480.816406 668.863281 482.347656 664.265625 485.453125 C 660.335938 488.203125 655.972656 490.539062 651.402344 491.6875 C 642.601562 493.804688 634.800781 498.191406 626.640625 501.910156 C 616.878906 506.265625 606.960938 511.140625 597.660156 516.761719 C 593.734375 519.511719 589.367188 521.847656 584.644531 523.511719 C 581.441406 524.792969 578.238281 526.074219 575.140625 527.945312 C 569.40625 530.148438 564.136719 533.617188 559.738281 537.910156 C 558.910156 538.785156 557.648438 539.246094 556.460938 539.449219 C 552.328125 541.011719 548.558594 543.246094 545.660156 546.308594 Z M 907.644531 606.1875 C 905.527344 606.671875 903.589844 607.492188 901.574219 608.570312 C 897.46875 610.984375 893.617188 613.472656 889.691406 616.222656 C 881.652344 621.386719 873.617188 626.546875 865.582031 631.710938 C 858.21875 636.511719 852.707031 643.5625 844.726562 647.617188 C 844.46875 647.539062 844.390625 647.796875 844.3125 648.054688 C 836.167969 655.433594 826.789062 661.316406 820.210938 670.015625 C 819.796875 670.453125 819.382812 670.890625 819.125 670.8125 C 817.066406 670.1875 816.597656 671.734375 815.433594 672.789062 C 812.691406 675.332031 809.695312 677.800781 806.695312 680.269531 C 802.789062 683.867188 799.144531 687.546875 795.160156 691.40625 C 792.832031 693.511719 790.945312 696.035156 788.617188 698.144531 C 783.882812 702.621094 779.308594 706.578125 774.832031 711.132812 C 769.195312 716.738281 763.917969 723.019531 758.535156 728.703125 C 753.15625 734.386719 747.027344 740.691406 741.230469 746.8125 C 740.402344 747.6875 739.753906 748.898438 738.925781 749.773438 C 738.023438 750.90625 737.117188 752.039062 735.953125 753.089844 C 734.375 754.582031 732.359375 755.660156 731.039062 757.230469 C 723.925781 764.921875 716.992188 772.949219 710.136719 780.722656 C 708.480469 782.472656 706.746094 784.476562 705.089844 786.226562 C 701.367188 790.164062 697.71875 793.839844 694.433594 798.191406 C 691.894531 801.925781 688.917969 805.242188 685.328125 807.8125 C 684.65625 808.171875 683.984375 808.53125 683.492188 809.226562 C 681.445312 812.261719 679.140625 815.222656 677.351562 818.339844 C 677.042969 819.371094 676.730469 820.402344 676.675781 821.511719 C 677.859375 821.308594 678.789062 821.027344 680.054688 820.566406 C 685.585938 817.175781 691.449219 813.605469 696.976562 810.21875 C 700.828125 807.726562 705.035156 805.90625 708.886719 803.414062 C 717.414062 797.558594 726.222656 792.628906 734.929688 787.109375 C 745.730469 780.253906 756.609375 773.136719 767.230469 765.945312 C 774.335938 761.0625 781.441406 756.183594 788.625 751.042969 C 792.632812 748.039062 796.636719 745.03125 800.386719 741.945312 C 804.960938 737.988281 809.28125 733.949219 813.777344 730.246094 C 817.863281 726.984375 822.125 724.054688 825.875 720.96875 C 830.117188 717.191406 834.253906 712.816406 838.496094 709.039062 C 844.90625 703.664062 850.699219 697.542969 856.238281 691.339844 C 859.78125 687.070312 864.101562 683.03125 867.902344 678.839844 C 870.542969 675.699219 873.003906 672.222656 875.640625 669.085938 C 878.851562 664.992188 882.0625 660.898438 885.605469 656.628906 C 889.566406 651.917969 891.183594 645.65625 895.65625 641.101562 C 896.976562 639.535156 898.117188 637.628906 898.5625 635.230469 C 900.125 630.078125 902.019531 624.742188 904.355469 619.824219 C 905.347656 615.621094 906.160156 611.085938 907.644531 606.1875 Z M 907.644531 606.1875" style="stroke:none;fill-rule:nonzero;fill:#000000;fill-opacity:1;"/></g></g></g></g></svg>