<svg xmlns="http://www.w3.org/2000/svg" xmlns:xlink="http://www.w3.org/1999/xlink" width="1728" zoomAndPan="magnify" viewBox="0 0 1296 1727.999927" height="2304" preserveAspectRatio="xMidYMid meet" version="1.2"><defs><clipPath id="f7513d9e22"><path d="M 40 765.464844 L 1256 765.464844 L 1256 1063.964844 L 40 1063.964844 Z M 40 765.464844 "/></clipPath></defs><g id="1e6cba5dc2"><rect x="0" width="1296" y="0" height="1727.999927" style="fill: #00000000;fill-opacity:1;stroke:none;"/><rect x="0" width="1296" y="0" height="1727.999927" style="fill: #00000000;fill-opacity:1;stroke:none;"/><g clip-rule="nonzero" clip-path="url(#f7513d9e22)"><path style=" stroke:none;fill-rule:nonzero;fill:#000000;fill-opacity:1;" d="M 1072.566406 1004.832031 C 1054.472656 971.003906 1020.617188 887.085938 994.511719 833.375 C 981.847656 807.296875 969.957031 787.929688 962.980469 782.25 C 956.777344 777.34375 951.089844 777.34375 946.957031 778.890625 C 942.820312 780.441406 937.910156 783.796875 933 789.476562 C 925.503906 798.515625 916.71875 814.527344 907.929688 834.148438 C 885.703125 883.726562 861.148438 958.609375 846.675781 997.601562 C 840.472656 982.625 831.945312 962.226562 823.671875 943.894531 C 801.964844 896.121094 780.253906 848.867188 759.316406 800.839844 C 758.285156 798.257812 753.375 787.929688 748.460938 782.765625 C 742.777344 776.824219 736.058594 775.535156 730.113281 777.601562 C 725.203125 779.40625 719.773438 783.28125 714.605469 789.476562 C 706.335938 799.808594 698.0625 817.882812 689.792969 840.089844 C 672.21875 888.375 655.675781 956.285156 643.53125 996.570312 C 643.011719 998.375 642.496094 1000.183594 641.722656 1001.992188 C 631.382812 974.363281 616.390625 948.28125 606.570312 920.136719 C 591.582031 877.015625 586.410156 826.660156 564.441406 786.378906 C 562.375 782.507812 559.273438 776.050781 555.398438 772.175781 C 552.039062 768.820312 547.902344 766.496094 543.507812 765.980469 C 539.371094 765.464844 534.71875 766.496094 530.328125 769.855469 C 525.933594 773.210938 520.765625 780.441406 515.851562 790.769531 C 494.144531 837.765625 467.265625 962.226562 462.09375 994.503906 C 462.09375 995.019531 461.835938 996.050781 461.835938 997.601562 C 457.699219 991.148438 453.308594 982.882812 448.398438 974.105469 C 423.328125 927.882812 390.503906 857.648438 370.085938 823.046875 C 364.140625 813.234375 358.972656 806.003906 355.351562 802.390625 C 351.476562 798.515625 347.597656 796.964844 344.757812 796.707031 C 343.464844 796.449219 341.394531 796.964844 339.84375 797.484375 C 334.675781 798 330.542969 800.582031 327.699219 805.230469 C 325.628906 808.585938 324.855469 814.527344 323.5625 818.140625 C 309.605469 857.390625 293.839844 897.414062 283.242188 938.210938 C 278.332031 956.804688 276.523438 983.65625 267.476562 1002.507812 C 260.757812 990.628906 251.453125 972.554688 240.855469 952.929688 C 220.699219 914.972656 195.628906 870.816406 173.660156 848.867188 C 160.996094 836.214844 148.332031 830.535156 137.992188 832.085938 C 130.753906 833.117188 123.519531 837.507812 117.316406 845.769531 C 110.855469 854.289062 104.652344 867.71875 98.964844 883.726562 C 85.007812 923.234375 73.121094 981.074219 59.679688 1016.453125 C 58.386719 1019.550781 57.355469 1022.648438 56.0625 1025.488281 C 53.476562 1026.007812 50.894531 1027.554688 49.082031 1029.621094 C 48.050781 1030.652344 45.722656 1035.042969 43.914062 1039.433594 C 42.105469 1043.824219 40.554688 1048.472656 40.554688 1049.761719 C 40.039062 1055.441406 42.882812 1058.800781 44.171875 1060.089844 C 46.242188 1062.15625 48.824219 1063.449219 51.667969 1063.707031 C 53.734375 1063.964844 56.320312 1063.707031 59.164062 1061.898438 C 66.398438 1057.765625 73.894531 1047.179688 80.355469 1031.945312 C 92.246094 1003.539062 102.84375 956.804688 114.472656 917.296875 C 120.675781 896.121094 127.136719 877.273438 134.375 865.136719 C 135.925781 862.554688 137.476562 860.230469 139.027344 858.679688 C 140.058594 857.648438 140.578125 856.613281 141.609375 856.355469 C 143.9375 856.097656 146.261719 857.648438 148.847656 859.714844 C 154.015625 863.328125 159.1875 868.75 164.613281 875.464844 C 182.964844 897.929688 202.605469 933.304688 218.890625 964.035156 C 234.136719 992.695312 247.058594 1018 253.523438 1026.78125 C 258.691406 1034.011719 264.636719 1035.300781 267.476562 1035.042969 C 269.804688 1035.042969 272.90625 1034.269531 276.007812 1032.203125 C 279.109375 1029.878906 283.242188 1024.457031 284.277344 1022.90625 C 298.234375 1002.25 301.335938 967.648438 307.28125 944.152344 C 317.359375 905.933594 332.09375 867.976562 345.015625 830.535156 C 349.410156 837.507812 355.351562 847.0625 360.261719 856.097656 C 381.457031 895.605469 409.113281 954.480469 430.304688 992.695312 C 440.125 1010.511719 448.914062 1023.941406 455.117188 1029.878906 C 457.699219 1032.460938 461.578125 1034.011719 465.453125 1034.011719 C 470.625 1034.011719 475.535156 1031.6875 479.152344 1026.265625 C 480.960938 1023.683594 482.769531 1019.550781 483.804688 1015.417969 C 485.613281 1008.445312 486.390625 1000.183594 486.648438 997.859375 C 490.785156 970.488281 511.203125 874.433594 530.585938 820.464844 C 534.203125 810.394531 537.820312 801.613281 541.183594 795.417969 C 541.699219 796.449219 542.214844 797.226562 542.472656 797.742188 C 563.925781 836.992188 568.320312 886.050781 583.050781 927.882812 C 593.390625 957.578125 609.414062 984.433594 619.753906 1013.871094 C 620.011719 1015.160156 622.335938 1024.457031 624.40625 1030.394531 C 626.214844 1035.042969 628.539062 1038.917969 630.609375 1041.242188 C 633.449219 1044.082031 636.808594 1045.371094 639.910156 1045.628906 C 643.53125 1045.890625 647.664062 1045.113281 651.285156 1041.242188 C 652.835938 1039.691406 654.902344 1036.851562 656.96875 1032.460938 C 659.8125 1026.265625 663.171875 1016.195312 667.050781 1003.28125 C 679.195312 963.257812 695.480469 895.863281 712.796875 848.351562 C 718.742188 831.824219 724.945312 817.625 731.144531 808.328125 C 731.921875 807.296875 732.4375 806.261719 733.214844 805.488281 C 734.507812 807.8125 735.796875 810.136719 736.058594 810.652344 C 756.992188 858.9375 778.703125 906.191406 800.414062 953.964844 C 816.4375 989.597656 829.875 1025.746094 834.011719 1032.71875 C 838.148438 1039.175781 843.574219 1039.691406 845.902344 1039.691406 C 849.519531 1039.691406 852.101562 1038.660156 853.914062 1037.367188 C 856.496094 1035.816406 858.304688 1033.234375 860.117188 1029.363281 C 871.230469 1006.382812 902.503906 905.933594 930.15625 844.21875 C 936.875 829.242188 943.339844 816.847656 949.023438 808.585938 C 949.28125 808.070312 949.800781 807.554688 950.316406 807.039062 C 955.226562 814.785156 964.273438 829.503906 971.507812 844.21875 C 999.164062 899.996094 1034.574219 987.789062 1052.664062 1020.582031 C 1057.574219 1029.363281 1061.96875 1035.042969 1064.8125 1037.109375 C 1068.171875 1039.433594 1071.273438 1040.207031 1073.597656 1039.949219 C 1076.699219 1039.949219 1080.320312 1038.917969 1083.9375 1035.816406 C 1087.296875 1032.71875 1092.464844 1023.941406 1097.636719 1011.027344 C 1112.625 974.621094 1135.886719 899.222656 1162.25 852.484375 C 1167.417969 843.1875 1172.847656 835.183594 1178.53125 828.984375 C 1181.890625 825.113281 1185.25 822.015625 1188.613281 820.207031 C 1190.9375 823.304688 1196.363281 830.792969 1199.726562 837.765625 C 1215.492188 871.589844 1229.707031 929.949219 1230.222656 945.957031 L 1230.222656 946.214844 C 1228.929688 951.898438 1231.515625 957.835938 1236.941406 960.417969 C 1243.144531 963.515625 1250.640625 960.933594 1253.742188 954.738281 C 1254.777344 952.671875 1255.808594 946.214844 1254.515625 936.664062 C 1251.414062 913.164062 1237.460938 859.457031 1222.46875 827.179688 C 1215.75 812.460938 1207.996094 802.132812 1201.015625 797.742188 C 1195.074219 794.125 1189.128906 793.351562 1183.441406 795.417969 C 1170.777344 799.808594 1157.597656 813.234375 1145.449219 832.601562 C 1121.15625 871.589844 1099.1875 935.886719 1083.421875 979.011719 C 1079.800781 988.046875 1075.667969 997.601562 1072.566406 1004.832031 Z M 1072.566406 1004.832031 "/></g></g></svg>