<svg version="1.2" preserveAspectRatio="xMidYMid meet" viewBox="33.40801152 116.3521102846618 1233.792 1555.1999343" zoomAndPan="magnify" xmlns:xlink="http://www.w3.org/1999/xlink" xmlns="http://www.w3.org/2000/svg" style="max-height: 500px" width="1233.792" height="1555.1999343"><defs><clipPath id="57ef1b134a"><path d="M 45.058594 132 L 1251 132 L 1251 1650 L 45.058594 1650 Z M 45.058594 132"/></clipPath></defs><g id="6be9150d74"><rect style="fill: #00000000;fill-opacity:1;stroke:none;" height="1727.999927" y="0" width="1296" x="0"/><rect style="fill: #00000000;fill-opacity:1;stroke:none;" height="1727.999927" y="0" width="1296" x="0"/><path d="M 1236.957031 140.847656 L 1236.957031 1637.707031 L 58.726562 1637.707031 L 58.726562 140.847656 L 128.589844 140.847656 C 128.894531 141.453125 129.195312 142.367188 129.195312 143.277344 C 129.5 147.226562 127.375 149.65625 127.070312 153.605469 C 126.464844 158.160156 135.273438 163.324219 133.449219 167.273438 C 133.144531 168.183594 125.550781 169.09375 124.945312 170.007812 C 114.011719 177.601562 106.71875 190.660156 106.71875 205.542969 C 106.71875 228.933594 124.640625 247.765625 146.511719 247.765625 C 168.378906 247.765625 186.300781 228.933594 186.300781 205.542969 C 186.300781 192.789062 180.832031 180.636719 171.722656 172.738281 C 163.214844 165.449219 153.496094 170.917969 162.609375 157.25 C 163.214844 156.640625 158.660156 145.707031 158.964844 144.796875 C 158.964844 144.1875 161.699219 142.367188 163.824219 140.847656 L 254.644531 140.847656 C 254.949219 141.453125 255.25 142.367188 255.25 143.277344 C 255.554688 147.226562 253.429688 149.65625 253.125 153.605469 C 252.519531 158.160156 261.328125 163.324219 259.503906 167.273438 C 259.199219 168.183594 251.304688 169.09375 251 170.007812 C 240.0625 177.601562 232.773438 190.660156 232.773438 205.242188 C 232.773438 228.628906 250.390625 247.460938 272.566406 247.460938 C 294.738281 247.460938 312.355469 228.628906 312.355469 205.242188 C 312.355469 192.484375 306.886719 180.332031 297.777344 172.4375 C 289.269531 165.144531 279.246094 170.613281 288.664062 156.945312 C 289.269531 156.335938 284.714844 145.402344 285.019531 144.492188 C 285.019531 143.882812 287.753906 142.0625 289.878906 140.542969 L 381.003906 140.542969 C 381.304688 141.152344 381.609375 142.0625 381.609375 142.972656 C 381.914062 146.921875 379.789062 149.351562 379.179688 153.300781 C 378.574219 157.855469 387.382812 163.019531 385.558594 166.96875 C 385.253906 167.878906 377.355469 168.792969 377.054688 169.703125 C 366.117188 177.296875 358.828125 190.355469 358.828125 204.9375 C 358.828125 228.324219 376.445312 247.15625 398.621094 247.15625 C 420.488281 247.15625 438.410156 228.324219 438.410156 204.9375 C 438.410156 192.179688 432.941406 180.03125 423.832031 172.132812 C 415.324219 164.84375 405.300781 170.308594 414.71875 156.640625 C 415.324219 156.035156 410.769531 145.097656 411.074219 144.1875 C 411.074219 143.582031 413.808594 141.757812 415.933594 140.238281 L 507.058594 140.238281 C 507.359375 140.847656 507.664062 141.757812 507.664062 142.667969 C 507.96875 146.617188 505.84375 149.046875 505.234375 152.996094 C 504.625 157.554688 513.433594 162.714844 511.613281 166.664062 C 511.308594 167.578125 503.714844 168.488281 503.109375 169.398438 C 492.171875 176.992188 484.882812 190.054688 484.882812 204.632812 C 484.882812 228.023438 502.804688 246.855469 524.675781 246.855469 C 546.542969 246.855469 564.464844 228.023438 564.464844 204.632812 C 564.464844 191.875 558.996094 179.726562 549.886719 171.828125 C 541.378906 164.539062 531.355469 170.007812 540.773438 156.335938 C 541.378906 155.730469 536.824219 144.796875 537.128906 143.882812 C 537.128906 143.277344 539.863281 141.453125 541.988281 139.9375 L 632.808594 139.9375 C 633.113281 140.542969 633.414062 141.453125 633.414062 142.367188 C 633.71875 146.3125 631.59375 148.746094 630.984375 152.691406 C 630.378906 157.25 639.1875 162.414062 637.363281 166.363281 C 637.058594 167.273438 629.464844 168.183594 628.859375 169.09375 C 617.925781 176.6875 610.632812 189.75 610.632812 204.328125 C 610.632812 227.71875 628.554688 246.550781 650.425781 246.550781 C 672.292969 246.550781 690.214844 227.71875 690.214844 204.328125 C 690.214844 191.574219 684.75 179.421875 675.636719 171.523438 C 667.132812 164.234375 657.105469 169.703125 666.523438 156.035156 C 666.828125 155.425781 662.574219 144.492188 662.878906 143.582031 C 662.878906 142.972656 665.613281 141.152344 667.738281 139.632812 L 758.558594 139.632812 C 758.863281 140.238281 759.164062 141.152344 759.164062 142.0625 C 759.46875 146.011719 757.34375 148.441406 756.734375 152.390625 C 756.128906 156.945312 764.9375 162.109375 763.113281 166.058594 C 762.8125 166.96875 755.21875 167.878906 754.914062 168.792969 C 743.980469 176.386719 736.6875 189.445312 736.6875 204.027344 C 736.6875 227.414062 754.609375 246.246094 776.480469 246.246094 C 798.347656 246.246094 816.269531 227.414062 816.269531 204.027344 C 816.269531 191.269531 810.804688 179.117188 801.691406 171.222656 C 793.183594 163.929688 783.160156 169.398438 792.578125 155.730469 C 792.882812 155.121094 788.628906 144.1875 788.933594 143.277344 C 788.933594 142.667969 791.667969 140.847656 793.792969 139.328125 L 884.917969 139.328125 C 885.21875 139.9375 885.523438 140.847656 885.523438 141.757812 C 885.523438 145.707031 883.703125 148.136719 883.09375 152.085938 C 882.488281 156.640625 891.296875 161.804688 889.472656 165.753906 C 889.167969 166.664062 881.574219 167.578125 881.273438 168.488281 C 870.335938 176.082031 863.046875 189.140625 863.046875 203.722656 C 863.046875 227.109375 880.96875 245.941406 902.835938 245.941406 C 924.707031 245.941406 942.628906 227.109375 942.628906 203.722656 C 942.628906 190.964844 937.160156 178.816406 928.046875 170.917969 C 919.542969 163.628906 909.824219 169.09375 918.9375 155.425781 C 919.542969 154.820312 914.988281 143.882812 915.292969 142.972656 C 915.292969 142.367188 918.023438 140.542969 920.152344 139.023438 L 1011.273438 139.023438 C 1011.578125 139.632812 1011.882812 140.542969 1011.882812 141.453125 C 1012.1875 145.402344 1010.363281 147.832031 1009.757812 151.78125 C 1009.148438 156.335938 1017.957031 161.5 1016.136719 165.449219 C 1015.832031 166.363281 1008.238281 167.273438 1007.933594 168.183594 C 997 175.777344 989.710938 188.839844 989.710938 203.417969 C 989.710938 226.808594 1007.628906 245.640625 1029.5 245.640625 C 1051.371094 245.640625 1069.289062 226.808594 1069.289062 203.417969 C 1069.289062 190.660156 1063.824219 178.511719 1054.710938 170.613281 C 1046.207031 163.324219 1036.484375 168.792969 1045.597656 155.121094 C 1046.207031 154.515625 1041.648438 143.582031 1041.953125 142.667969 C 1041.953125 142.0625 1044.6875 140.238281 1046.8125 138.71875 L 1137.9375 138.71875 C 1138.242188 139.328125 1138.542969 140.238281 1138.542969 141.152344 C 1138.847656 145.097656 1137.027344 147.527344 1136.417969 151.476562 C 1135.8125 156.035156 1144.621094 161.199219 1142.796875 165.148438 C 1142.492188 166.058594 1134.898438 166.96875 1134.597656 167.878906 C 1123.660156 175.472656 1116.371094 188.535156 1116.371094 203.113281 C 1116.371094 226.503906 1134.292969 245.335938 1156.160156 245.335938 C 1178.03125 245.335938 1195.953125 226.503906 1195.953125 203.113281 C 1195.953125 190.359375 1190.484375 178.207031 1181.371094 170.308594 C 1172.867188 163.019531 1163.148438 168.488281 1172.261719 154.820312 C 1172.867188 154.210938 1168.3125 143.277344 1168.617188 142.367188 C 1168.617188 141.757812 1171.347656 139.9375 1173.476562 138.417969 Z M 1236.957031 140.847656" style="stroke:none;fill-rule:nonzero;fill:#fffdef;fill-opacity:1;"/><path d="M 58.726562 357.722656 L 1236.957031 357.722656 L 1236.957031 363.796875 L 58.726562 363.796875 Z M 58.726562 535.109375 L 1236.957031 535.109375 L 1236.957031 537.539062 L 58.726562 537.539062 Z M 58.726562 634.128906 L 1236.957031 634.128906 L 1236.957031 636.558594 L 58.726562 636.558594 Z M 58.726562 733.152344 L 1236.957031 733.152344 L 1236.957031 735.582031 L 58.726562 735.582031 Z M 58.726562 832.171875 L 1236.957031 832.171875 L 1236.957031 834.601562 L 58.726562 834.601562 Z M 58.726562 931.195312 L 1236.957031 931.195312 L 1236.957031 933.625 L 58.726562 933.625 Z M 58.726562 1029.910156 L 1236.957031 1029.910156 L 1236.957031 1032.339844 L 58.726562 1032.339844 Z M 58.726562 1128.933594 L 1236.957031 1128.933594 L 1236.957031 1131.363281 L 58.726562 1131.363281 Z M 58.726562 1227.953125 L 1236.957031 1227.953125 L 1236.957031 1230.382812 L 58.726562 1230.382812 Z M 58.726562 1326.972656 L 1236.957031 1326.972656 L 1236.957031 1329.402344 L 58.726562 1329.402344 Z M 58.726562 1429.640625 L 1236.957031 1429.640625 L 1236.957031 1432.070312 L 58.726562 1432.070312 Z M 58.726562 1429.640625" style="stroke:none;fill-rule:nonzero;fill:#fcde57;fill-opacity:1;"/><path d="M 200.882812 140.847656 L 206.957031 140.847656 L 206.957031 1637.707031 L 200.882812 1637.707031 Z M 200.882812 140.847656" style="stroke:none;fill-rule:nonzero;fill:#fcde57;fill-opacity:1;"/><g clip-path="url(#57ef1b134a)" clip-rule="nonzero"><path d="M 1248.5 1012.902344 C 1247.285156 1001.359375 1248.804688 989.816406 1248.195312 978.273438 C 1247.589844 965.515625 1246.070312 952.757812 1246.070312 940.003906 C 1246.070312 927.851562 1248.5 916.007812 1248.5 903.855469 C 1248.195312 878.949219 1248.5 854.042969 1248.5 829.4375 C 1248.5 816.984375 1248.804688 804.53125 1248.5 792.078125 C 1248.5 786.914062 1247.589844 781.75 1247.589844 776.585938 C 1247.589844 770.511719 1248.5 764.132812 1248.5 758.058594 C 1248.5 746.515625 1248.804688 734.367188 1247.589844 722.824219 C 1246.375 710.976562 1244.550781 699.738281 1243.945312 687.894531 C 1243.335938 675.4375 1241.515625 663.289062 1242.121094 650.835938 C 1242.425781 638.6875 1242.425781 626.535156 1242.425781 614.386719 C 1242.121094 588.871094 1242.425781 563.355469 1242.425781 538.144531 C 1242.425781 525.085938 1242.425781 511.71875 1242.425781 498.660156 C 1242.425781 492.886719 1242.730469 487.117188 1242.121094 481.648438 C 1241.515625 475.269531 1239.996094 469.195312 1239.996094 462.816406 C 1239.996094 438.214844 1240.300781 413.308594 1239.996094 388.703125 C 1239.996094 376.25 1241.816406 364.402344 1242.730469 351.949219 C 1243.640625 340.710938 1242.425781 329.472656 1242.121094 318.234375 C 1241.515625 293.328125 1240.90625 268.421875 1241.816406 243.816406 C 1241.816406 238.046875 1242.730469 232.578125 1243.640625 226.808594 C 1244.550781 221.035156 1244.246094 215.265625 1244.855469 209.191406 C 1245.460938 203.722656 1246.070312 198.253906 1246.070312 192.789062 C 1246.070312 186.410156 1245.160156 180.03125 1245.460938 173.652344 C 1245.765625 169.398438 1247.894531 165.449219 1247.285156 161.199219 C 1246.980469 158.769531 1246.070312 156.640625 1245.765625 154.515625 C 1245.460938 151.78125 1245.765625 149.046875 1245.765625 146.3125 C 1245.765625 140.847656 1240.300781 139.328125 1236.652344 141.152344 C 1236.351562 141.152344 1236.046875 141.152344 1235.742188 141.152344 C 1231.492188 140.847656 1227.84375 142.972656 1223.59375 142.972656 C 1218.734375 142.972656 1214.175781 141.453125 1209.011719 141.152344 C 1206.582031 141.152344 1204.761719 141.453125 1202.332031 140.847656 C 1199.902344 140.238281 1197.773438 139.632812 1195.34375 139.632812 C 1190.789062 139.328125 1186.535156 139.632812 1181.980469 139.632812 C 1174.992188 139.328125 1166.792969 139.328125 1161.628906 145.097656 C 1158.289062 148.746094 1158.289062 153.300781 1161.628906 156.640625 C 1162.539062 157.855469 1164.058594 158.464844 1165.273438 159.375 C 1163.148438 162.109375 1161.324219 165.144531 1159.804688 168.183594 C 1158.589844 170.308594 1158.589844 173.953125 1160.71875 175.472656 C 1163.753906 177.902344 1166.488281 178.816406 1170.132812 179.726562 C 1173.476562 180.636719 1175.90625 182.15625 1178.03125 184.890625 C 1179.855469 187.320312 1181.070312 190.660156 1182.890625 193.394531 C 1184.714844 196.433594 1186.535156 199.46875 1188.054688 202.507812 C 1194.128906 216.175781 1183.195312 227.71875 1173.476562 236.222656 C 1163.453125 245.335938 1148.871094 243.816406 1137.027344 238.957031 C 1131.253906 236.527344 1125.789062 233.183594 1122.75 227.71875 C 1118.800781 220.730469 1116.066406 212.835938 1116.371094 204.9375 C 1116.371094 197.648438 1119.710938 188.230469 1125.789062 183.675781 C 1132.164062 179.117188 1140.671875 179.726562 1146.136719 174.257812 C 1147.65625 172.738281 1148.566406 170.308594 1147.65625 168.183594 C 1145.835938 163.628906 1142.191406 161.199219 1138.242188 158.464844 C 1138.542969 157.855469 1138.847656 157.25 1139.152344 156.640625 C 1140.367188 154.210938 1140.671875 152.390625 1142.796875 150.261719 C 1147.960938 145.707031 1141.582031 137.203125 1135.8125 140.542969 C 1135.203125 140.238281 1134.898438 140.238281 1134.292969 139.933594 C 1133.078125 139.632812 1131.863281 139.328125 1130.648438 139.328125 C 1128.21875 139.023438 1125.484375 139.328125 1123.054688 139.328125 C 1117.890625 139.328125 1113.03125 140.847656 1107.867188 141.152344 C 1102.703125 141.453125 1097.234375 140.847656 1092.070312 141.152344 C 1086.605469 141.152344 1081.441406 141.757812 1075.972656 141.453125 C 1062.609375 141.453125 1041.953125 132.644531 1034.359375 148.746094 C 1033.144531 151.175781 1033.449219 153.90625 1035.269531 156.035156 C 1036.484375 157.25 1038.003906 158.464844 1039.523438 159.375 C 1039.828125 159.679688 1041.347656 160.894531 1042.5625 161.5 C 1041.953125 162.109375 1041.347656 162.414062 1041.042969 162.714844 C 1038.613281 164.539062 1035.878906 166.363281 1034.664062 169.09375 C 1032.234375 173.652344 1034.664062 179.117188 1039.828125 180.332031 C 1041.648438 180.636719 1042.863281 180.03125 1044.6875 180.332031 C 1046.207031 180.332031 1047.722656 181.546875 1048.9375 182.460938 C 1052.28125 184.890625 1054.40625 188.535156 1056.835938 191.875 C 1059.570312 195.824219 1061.695312 199.164062 1062 204.027344 C 1062 208.582031 1062 213.136719 1061.394531 217.695312 C 1060.179688 225.59375 1056.53125 231.667969 1049.546875 235.917969 C 1046.507812 237.742188 1043.167969 239.261719 1040.128906 241.386719 C 1037.398438 243.210938 1034.664062 245.640625 1031.019531 245.640625 C 1027.375 245.640625 1023.121094 243.816406 1019.78125 242.90625 C 1015.527344 241.691406 1010.972656 240.476562 1007.628906 237.4375 C 1004.59375 234.703125 1002.164062 231.363281 999.734375 227.71875 C 997.300781 224.375 994.871094 221.035156 993.65625 216.785156 C 993.050781 214.050781 992.441406 211.316406 991.835938 208.582031 C 991.226562 206.757812 990.316406 204.9375 990.925781 203.113281 C 991.53125 201.292969 993.050781 199.46875 993.960938 197.648438 C 995.175781 195.519531 995.785156 193.089844 996.390625 190.660156 C 997.605469 186.710938 999.429688 183.675781 1002.464844 180.941406 C 1003.679688 180.03125 1004.894531 179.117188 1006.414062 178.816406 C 1007.023438 178.511719 1007.933594 178.511719 1008.542969 178.207031 C 1009.757812 177.902344 1011.578125 178.816406 1009.757812 177.601562 C 1016.742188 181.246094 1022.816406 170.613281 1015.832031 166.96875 C 1016.4375 167.273438 1015.832031 166.96875 1015.527344 166.664062 C 1015.222656 166.058594 1014.917969 165.449219 1014.617188 164.84375 C 1014.007812 163.019531 1013.402344 161.199219 1013.097656 159.375 C 1013.097656 159.375 1013.097656 158.464844 1012.792969 158.160156 C 1012.792969 157.25 1012.792969 156.335938 1012.792969 155.730469 C 1012.792969 153.90625 1012.792969 152.390625 1014.007812 151.175781 C 1017.652344 147.832031 1014.917969 140.238281 1009.757812 140.847656 C 1004.289062 141.453125 999.125 142.367188 993.960938 143.582031 C 991.835938 144.1875 991.53125 143.582031 989.101562 142.972656 C 986.367188 142.0625 983.332031 141.757812 980.597656 141.453125 C 968.445312 139.933594 957.207031 143.277344 945.363281 143.882812 C 939.589844 144.1875 933.515625 144.1875 927.746094 144.1875 C 923.796875 144.1875 918.328125 143.582031 914.683594 145.707031 C 910.429688 148.136719 910.429688 152.691406 911.644531 156.945312 C 911.949219 158.769531 912.558594 160.894531 913.46875 162.414062 C 911.949219 163.324219 909.519531 163.628906 908 164.539062 C 902.535156 166.96875 905.269531 176.6875 911.039062 176.082031 C 912.859375 175.777344 915.292969 177.902344 917.113281 178.511719 C 920.152344 179.726562 923.1875 179.726562 926.226562 181.546875 C 928.960938 183.066406 931.390625 183.675781 932.910156 185.800781 C 935.339844 188.839844 936.855469 191.875 937.769531 195.519531 C 938.070312 197.039062 938.070312 198.558594 938.375 200.078125 C 938.679688 201.898438 939.289062 203.417969 939.589844 205.242188 C 939.894531 208.582031 937.769531 212.53125 936.25 215.566406 C 933.515625 222.25 930.78125 228.628906 926.226562 234.097656 C 921.367188 239.5625 916.203125 240.777344 908.914062 240.777344 C 901.925781 240.777344 895.242188 240.777344 888.867188 237.742188 C 883.09375 234.703125 876.109375 231.667969 872.464844 225.894531 C 869.425781 220.730469 866.996094 214.351562 866.386719 208.277344 C 865.476562 200.988281 869.425781 194.914062 873.980469 189.75 C 876.714844 186.410156 879.449219 183.066406 881.574219 179.117188 C 882.183594 177.902344 883.09375 176.6875 884.003906 175.472656 C 884.308594 175.171875 884.613281 174.5625 885.21875 174.257812 C 885.21875 174.257812 885.523438 174.5625 886.132812 174.867188 C 892.207031 179.117188 897.675781 170.308594 893.421875 165.144531 C 890.382812 161.5 886.132812 159.375 884.917969 154.210938 C 884.613281 153.605469 885.523438 152.390625 886.433594 150.871094 C 887.953125 148.441406 888.867188 146.617188 888.867188 143.882812 C 888.867188 141.453125 887.042969 138.417969 884.308594 137.808594 C 882.183594 137.503906 880.359375 135.988281 878.234375 135.683594 C 875.5 135.378906 873.070312 135.683594 870.335938 135.683594 C 863.957031 135.683594 857.277344 135.683594 850.898438 135.683594 C 844.820312 135.683594 838.445312 135.683594 832.367188 136.59375 C 826.292969 137.203125 820.828125 138.113281 814.75 137.808594 C 809.890625 137.503906 805.335938 137.503906 800.476562 137.203125 C 796.527344 136.898438 792.273438 136.59375 788.628906 137.808594 C 783.769531 139.328125 781.035156 143.882812 781.339844 149.046875 C 781.644531 151.78125 782.554688 154.515625 784.074219 156.945312 C 784.375 157.25 784.679688 157.855469 785.289062 158.464844 C 784.074219 159.375 783.464844 160.285156 783.160156 161.5 C 781.339844 162.109375 779.515625 163.324219 778.910156 165.753906 C 778 168.792969 779.820312 172.738281 783.160156 173.347656 C 790.753906 174.5625 799.5625 177.601562 804.121094 184.28125 C 805.640625 186.710938 805.941406 189.445312 805.941406 192.179688 C 805.941406 196.734375 807.765625 201.597656 807.15625 205.847656 C 805.941406 214.960938 803.816406 222.859375 797.132812 229.539062 C 791.363281 235.617188 782.859375 236.222656 774.960938 238.046875 C 773.136719 238.347656 768.582031 239.261719 767.0625 238.652344 C 765.542969 238.046875 764.632812 236.527344 763.417969 235.3125 C 761.597656 233.792969 759.164062 232.882812 757.039062 231.363281 C 753.699219 229.539062 750.660156 226.808594 748.230469 223.769531 C 745.195312 220.125 743.371094 217.085938 739.117188 214.65625 C 737.902344 214.050781 736.6875 213.441406 736.082031 212.226562 C 735.472656 211.011719 735.777344 209.191406 735.777344 207.671875 C 736.082031 204.632812 736.992188 201.597656 737.902344 198.558594 C 739.421875 193.089844 740.332031 184.890625 745.195312 180.941406 C 748.839844 177.902344 752.484375 176.082031 753.699219 171.222656 C 754.914062 166.96875 753.394531 161.804688 749.75 158.769531 C 749.75 158.769531 749.445312 158.464844 749.445312 158.160156 C 749.445312 158.160156 749.75 157.855469 750.054688 157.554688 C 751.269531 156.640625 752.484375 155.425781 753.089844 154.210938 C 754.003906 152.691406 754.609375 150.871094 755.824219 149.65625 C 757.34375 147.832031 759.164062 146.3125 760.378906 144.1875 C 762.8125 140.542969 759.773438 134.46875 755.21875 135.074219 C 750.660156 135.378906 746.105469 136.59375 741.546875 136.898438 C 739.421875 136.898438 737.296875 136.898438 734.867188 136.898438 C 732.4375 136.898438 730.308594 137.203125 727.878906 136.898438 C 726.359375 136.59375 724.84375 135.683594 723.324219 135.074219 C 721.199219 134.46875 719.070312 134.773438 716.945312 135.378906 C 713.300781 136.289062 709.351562 136.289062 705.707031 135.988281 C 701.757812 135.683594 697.503906 135.074219 693.554688 134.164062 C 688.695312 132.949219 684.445312 134.46875 679.585938 135.378906 C 669.863281 136.898438 659.839844 138.113281 650.121094 140.238281 C 645.867188 141.152344 644.046875 147.527344 647.386719 150.566406 C 650.121094 152.996094 651.945312 155.425781 654.375 158.160156 C 655.890625 159.679688 657.410156 160.894531 659.234375 161.804688 C 658.320312 164.234375 657.410156 166.363281 657.410156 168.792969 C 657.410156 170.917969 658.625 173.042969 660.449219 173.953125 C 660.449219 173.953125 662.878906 174.5625 663.484375 174.867188 C 664.699219 175.171875 666.21875 175.777344 667.433594 176.386719 C 671.078125 177.601562 674.722656 178.816406 677.761719 181.246094 C 680.496094 183.371094 680.800781 185.800781 681.710938 189.140625 C 682.621094 193.089844 684.445312 196.128906 685.355469 199.773438 C 687.179688 205.847656 685.660156 213.746094 682.925781 219.515625 C 679.886719 225.59375 675.027344 230.148438 669.257812 233.183594 C 663.789062 236.222656 656.5 239.5625 650.121094 239.261719 C 642.832031 238.652344 635.542969 234.703125 629.464844 230.753906 C 618.226562 223.464844 609.117188 209.492188 614.582031 195.824219 C 617.316406 188.535156 622.480469 181.246094 628.554688 176.6875 C 633.109375 173.347656 640.097656 167.878906 641.007812 162.109375 C 641.617188 158.464844 640.097656 156.035156 636.757812 154.515625 C 634.023438 153.300781 630.679688 149.65625 634.628906 147.527344 C 639.792969 144.796875 637.667969 135.683594 631.59375 135.988281 C 627.644531 136.289062 624 135.683594 620.050781 135.378906 C 616.40625 135.074219 612.761719 135.988281 609.117188 136.289062 C 601.21875 136.59375 593.015625 135.988281 584.816406 135.988281 C 576.917969 135.988281 569.324219 137.203125 561.125 138.113281 C 557.476562 138.417969 553.832031 139.328125 549.886719 139.632812 C 545.9375 140.238281 541.988281 140.238281 538.039062 141.453125 C 534.394531 142.367188 531.964844 147.226562 534.394531 150.566406 C 534.699219 151.175781 535.304688 151.78125 535.609375 152.390625 C 534.394531 153.300781 533.484375 154.515625 532.570312 155.730469 C 530.445312 158.464844 528.925781 161.199219 528.015625 164.539062 C 527.40625 166.96875 528.320312 170.308594 530.75 171.523438 C 536.214844 174.257812 543.808594 175.472656 548.0625 180.03125 C 550.1875 182.15625 551.402344 185.195312 552.617188 187.925781 C 554.441406 191.269531 556.261719 194.609375 557.78125 198.253906 C 560.820312 205.242188 559.300781 211.921875 556.261719 218.605469 C 553.832031 224.679688 551.101562 231.363281 546.238281 236.222656 C 541.378906 241.082031 533.785156 242.90625 526.800781 243.210938 C 519.511719 243.816406 511.917969 240.777344 505.234375 237.4375 C 498.855469 234.402344 494.300781 228.933594 490.65625 223.160156 C 487.007812 217.390625 484.277344 210.40625 485.792969 203.417969 C 486.707031 199.773438 487.921875 195.519531 490.351562 192.484375 C 492.476562 189.75 493.085938 186.410156 495.210938 183.980469 C 500.679688 177.296875 509.183594 173.042969 515.5625 167.578125 C 517.082031 166.363281 517.6875 163.628906 517.082031 161.5 C 515.257812 155.425781 511.003906 153.300781 505.539062 151.476562 C 507.054688 149.960938 508.273438 146.3125 508.878906 144.492188 C 511.003906 139.023438 504.324219 135.683594 499.765625 137.503906 C 501.285156 136.898438 497.03125 136.59375 496.425781 136.59375 C 494.300781 136.59375 492.171875 136.59375 490.046875 136.59375 C 485.1875 136.59375 480.328125 136.59375 475.46875 136.898438 C 470.910156 137.203125 466.355469 137.203125 461.796875 136.898438 C 456.9375 136.289062 452.382812 137.203125 447.824219 138.113281 C 439.625 139.632812 431.425781 140.238281 423.527344 142.0625 C 420.792969 142.667969 418.058594 143.277344 415.324219 143.582031 C 414.109375 143.582031 412.589844 143.882812 411.375 143.582031 C 410.769531 143.582031 410.464844 142.972656 410.464844 143.277344 C 406.214844 136.59375 396.1875 142.367188 399.835938 149.351562 C 400.746094 150.871094 401.65625 152.691406 402.265625 154.515625 C 402.871094 156.640625 402.566406 158.769531 403.175781 160.589844 C 403.480469 161.5 403.78125 162.109375 404.390625 162.714844 C 403.78125 163.929688 404.085938 165.449219 404.390625 166.664062 C 403.175781 167.578125 402.265625 169.09375 402.265625 171.222656 C 402.265625 174.257812 404.996094 177.902344 408.339844 177.296875 C 414.71875 176.386719 419.882812 184.585938 422.617188 189.445312 C 426.5625 196.734375 428.691406 204.632812 427.777344 213.136719 C 426.867188 220.429688 423.527344 227.414062 418.058594 232.273438 C 415.324219 234.703125 412.894531 235.3125 409.25 235.617188 C 405.605469 235.617188 402.265625 236.832031 398.316406 236.832031 C 394.367188 236.527344 390.417969 236.832031 386.773438 236.222656 C 382.824219 235.617188 379.179688 233.488281 375.535156 231.667969 C 372.496094 229.84375 369.761719 228.023438 367.636719 225.289062 C 365.207031 221.945312 364.296875 217.390625 362.777344 213.441406 C 361.5625 210.40625 359.738281 207.0625 359.738281 203.722656 C 359.738281 199.773438 362.777344 196.128906 363.992188 192.484375 C 365.511719 188.535156 366.421875 184.585938 368.246094 180.636719 C 368.851562 179.421875 369.460938 178.207031 370.371094 177.601562 C 370.976562 177.601562 371.890625 177.601562 372.496094 177.601562 C 375.839844 177.902344 379.179688 178.207031 382.519531 176.6875 C 385.863281 175.171875 387.683594 171.828125 387.378906 168.183594 C 387.378906 165.753906 386.46875 163.929688 385.863281 161.804688 C 385.253906 159.375 384.949219 156.945312 384.34375 154.820312 C 382.824219 149.65625 383.128906 144.492188 381.914062 139.328125 C 381.304688 135.988281 377.355469 134.46875 374.320312 135.074219 C 367.03125 136.59375 359.738281 135.988281 352.449219 136.59375 C 344.855469 137.203125 336.65625 137.503906 329.0625 138.417969 C 321.46875 139.632812 313.875 139.933594 305.976562 140.238281 C 298.992188 140.542969 292.003906 139.632812 285.625 136.898438 C 283.195312 135.988281 280.160156 137.808594 278.640625 139.632812 C 275.90625 143.882812 278.03125 148.136719 278.335938 152.691406 C 278.640625 157.25 275.601562 162.109375 274.082031 166.363281 C 272.261719 171.222656 277.425781 174.5625 281.675781 173.953125 C 283.195312 173.652344 285.019531 173.347656 286.539062 174.257812 C 289.269531 176.082031 291.398438 180.636719 292.613281 183.675781 C 295.648438 190.355469 299.292969 197.34375 300.8125 204.632812 C 303.242188 215.871094 294.738281 228.933594 285.625 235.007812 C 275.296875 241.992188 264.363281 239.867188 253.734375 234.703125 C 248.570312 231.96875 244.621094 228.628906 242.191406 223.464844 C 240.671875 220.125 239.152344 216.785156 238.242188 213.136719 C 237.027344 209.191406 237.027344 204.632812 236.722656 200.382812 C 236.417969 194.609375 239.761719 187.625 243.101562 183.066406 C 244.925781 180.332031 250.695312 173.953125 253.734375 174.257812 C 260.109375 175.472656 265.273438 166.058594 258.59375 163.019531 C 256.464844 162.109375 255.859375 157.25 255.859375 154.820312 C 255.554688 149.960938 258.289062 148.136719 261.628906 145.097656 C 265.273438 141.453125 262.542969 134.46875 257.378906 134.773438 C 252.519531 135.074219 245.53125 132.34375 237.9375 133.558594 C 233.988281 134.164062 230.953125 134.773438 227.003906 134.773438 C 222.445312 134.773438 218.195312 134.773438 213.636719 134.773438 C 205.132812 134.773438 196.628906 134.773438 187.820312 134.773438 C 184.78125 134.773438 181.441406 135.074219 178.402344 135.074219 C 175.972656 135.074219 172.9375 135.378906 170.808594 133.558594 C 166.558594 129.910156 158.054688 133.253906 160.484375 139.632812 C 160.785156 140.542969 160.785156 141.453125 160.484375 142.667969 C 160.484375 143.277344 160.484375 143.882812 160.484375 144.492188 C 159.570312 146.617188 159.875 149.046875 159.570312 151.78125 C 159.269531 153.90625 158.660156 156.035156 158.355469 157.855469 C 158.054688 159.984375 158.054688 162.414062 157.140625 164.539062 C 155.925781 166.96875 154.40625 168.488281 155.015625 171.523438 C 155.320312 173.042969 155.925781 174.5625 157.140625 175.777344 C 159.570312 178.511719 163.824219 179.421875 167.164062 180.03125 C 170.507812 180.636719 172.023438 183.675781 174.152344 186.410156 C 176.277344 189.75 177.492188 193.699219 178.707031 197.34375 C 179.921875 201.597656 180.226562 205.847656 182.050781 209.796875 C 182.351562 210.707031 182.65625 210.101562 182.050781 211.316406 C 181.136719 212.53125 180.832031 214.351562 179.921875 215.566406 C 178.707031 217.085938 177.1875 218.605469 175.972656 220.429688 C 175.0625 221.945312 174.757812 224.074219 173.847656 225.59375 C 172.328125 228.933594 169.292969 232.882812 166.558594 235.007812 C 160.484375 239.867188 151.976562 239.5625 144.6875 239.261719 C 141.652344 239.261719 137.703125 239.867188 134.96875 238.652344 C 132.234375 237.742188 130.109375 234.703125 127.980469 232.578125 C 122.515625 227.71875 115.832031 222.859375 114.3125 215.265625 C 113.402344 211.011719 114.3125 205.542969 114.617188 200.988281 C 115.226562 196.433594 116.441406 191.875 117.957031 187.320312 C 119.476562 183.066406 120.691406 178.816406 123.425781 175.472656 C 126.160156 172.132812 130.714844 172.738281 134.664062 171.828125 C 138.917969 170.613281 139.828125 166.363281 138.308594 162.714844 C 136.488281 159.070312 134.359375 155.425781 133.449219 151.175781 C 132.539062 147.226562 133.144531 143.277344 133.449219 139.328125 C 134.058594 134.773438 127.070312 132.039062 123.425781 135.378906 C 123.425781 135.378906 123.121094 135.378906 123.121094 135.378906 C 122.515625 135.378906 122.210938 135.378906 121.601562 135.378906 C 119.476562 135.378906 117.351562 135.378906 114.921875 135.378906 C 111.277344 135.074219 107.933594 134.773438 104.289062 134.773438 C 90.316406 135.074219 76.34375 135.074219 62.980469 138.417969 C 61.765625 138.71875 60.855469 139.328125 59.941406 140.238281 C 56.296875 137.808594 50.222656 139.328125 50.527344 145.097656 C 50.527344 148.136719 47.792969 151.78125 46.578125 154.820312 C 45.058594 158.769531 45.363281 162.714844 45.972656 166.664062 C 46.882812 171.828125 46.882812 176.6875 47.488281 181.851562 C 48.097656 187.925781 50.222656 193.394531 50.832031 199.46875 C 53.5625 224.679688 52.347656 249.585938 52.347656 274.796875 C 52.347656 300.3125 51.132812 326.433594 53.867188 351.644531 C 55.082031 364.402344 54.171875 377.769531 53.867188 390.828125 C 53.5625 403.890625 52.957031 417.253906 52.652344 430.316406 C 51.742188 455.832031 53.867188 481.042969 54.171875 506.558594 C 54.171875 519.011719 54.171875 531.160156 53.261719 543.308594 C 52.347656 555.761719 53.867188 567.914062 54.171875 580.367188 C 54.171875 586.136719 53.261719 591.910156 53.261719 597.679688 C 52.957031 603.453125 53.5625 609.527344 53.261719 615.296875 C 52.652344 627.449219 52.652344 639.597656 52.652344 651.746094 C 52.652344 664.199219 53.5625 676.351562 54.476562 688.804688 C 55.386719 700.953125 53.261719 712.800781 54.171875 724.949219 C 55.082031 737.101562 54.78125 748.945312 55.082031 760.792969 C 55.691406 772.335938 58.425781 784.789062 56.296875 796.027344 C 54.171875 807.265625 55.691406 819.414062 55.691406 830.652344 C 55.691406 843.105469 56.601562 855.863281 55.386719 868.316406 C 52.957031 892.617188 53.261719 917.828125 54.476562 942.433594 C 54.78125 948.507812 55.082031 954.582031 55.082031 960.960938 C 55.082031 966.429688 54.171875 971.589844 55.082031 977.058594 C 56.90625 988.90625 55.691406 1000.75 55.996094 1012.902344 C 56.601562 1024.746094 55.386719 1035.984375 55.691406 1047.832031 C 55.691406 1060.285156 55.996094 1072.433594 55.996094 1084.890625 C 55.996094 1097.644531 56.601562 1110.707031 55.996094 1123.464844 C 55.691406 1129.234375 54.476562 1135.007812 54.476562 1141.082031 C 54.171875 1147.15625 55.386719 1152.625 55.996094 1158.699219 C 57.210938 1170.847656 55.996094 1183.300781 56.296875 1195.757812 C 56.601562 1208.210938 57.816406 1220.664062 58.121094 1233.117188 C 58.726562 1258.632812 57.511719 1284.144531 57.816406 1309.660156 C 57.816406 1315.734375 59.03125 1321.507812 58.726562 1327.582031 C 58.726562 1333.351562 57.511719 1339.125 57.511719 1344.894531 C 57.210938 1357.347656 57.816406 1369.5 57.816406 1381.953125 C 57.816406 1386.203125 58.425781 1390.152344 59.335938 1394.40625 C 60.550781 1400.785156 59.640625 1406.859375 58.425781 1413.238281 C 56.601562 1425.085938 59.640625 1436.324219 58.726562 1448.167969 C 56.601562 1473.378906 57.210938 1498.894531 57.210938 1524.410156 C 57.210938 1530.484375 57.511719 1536.558594 57.511719 1542.632812 C 57.210938 1549.011719 55.386719 1555.085938 55.691406 1561.464844 C 55.996094 1566.933594 57.511719 1572.097656 57.511719 1577.867188 C 57.511719 1584.246094 57.210938 1590.320312 55.996094 1596.398438 C 54.171875 1607.027344 55.691406 1619.179688 55.691406 1629.808594 C 55.691406 1631.933594 56.601562 1633.757812 58.121094 1634.667969 C 58.726562 1636.796875 59.640625 1638.617188 61.15625 1640.136719 C 66.625 1645.605469 76.953125 1643.476562 83.9375 1643.78125 C 88.800781 1643.78125 93.960938 1643.78125 98.824219 1643.78125 C 103.984375 1643.78125 108.847656 1645.605469 114.011719 1645.90625 C 124.640625 1646.515625 135.273438 1643.171875 145.902344 1643.171875 C 156.535156 1643.171875 167.164062 1644.390625 178.101562 1643.78125 C 183.265625 1643.476562 188.125 1642.566406 193.289062 1641.957031 C 198.449219 1641.351562 203.917969 1641.957031 209.082031 1641.65625 C 213.636719 1641.351562 218.195312 1640.441406 222.75 1641.351562 C 227.308594 1642.261719 231.253906 1642.261719 235.8125 1641.046875 C 240.367188 1639.832031 244.621094 1639.832031 249.480469 1639.832031 C 254.644531 1639.832031 259.503906 1638.921875 264.363281 1638.617188 C 274.386719 1638.3125 284.109375 1640.136719 293.828125 1641.351562 C 303.242188 1642.566406 312.964844 1639.832031 322.378906 1639.832031 C 333.3125 1639.832031 343.640625 1639.527344 354.273438 1641.351562 C 364.601562 1642.871094 373.710938 1640.441406 384.039062 1639.832031 C 405.300781 1638.3125 427.171875 1639.832031 448.433594 1640.136719 C 458.761719 1640.136719 469.390625 1641.351562 479.71875 1640.441406 C 489.742188 1639.527344 499.160156 1642.261719 509.183594 1642.261719 C 519.511719 1642.261719 530.140625 1640.136719 540.46875 1640.136719 C 551.101562 1640.136719 561.425781 1641.957031 572.058594 1643.476562 C 581.777344 1644.691406 591.5 1642.261719 601.523438 1642.261719 C 612.761719 1642.261719 624 1642.261719 635.542969 1642.261719 C 646.476562 1642.261719 657.714844 1641.957031 668.648438 1642.566406 C 678.976562 1643.175781 689 1644.390625 699.023438 1644.390625 C 710.261719 1644.390625 721.199219 1644.085938 732.4375 1644.390625 C 736.6875 1644.390625 741.246094 1644.691406 745.496094 1644.691406 C 750.355469 1644.691406 755.21875 1643.476562 760.078125 1643.175781 C 770.40625 1641.957031 780.730469 1644.390625 791.058594 1645.90625 C 801.691406 1647.425781 812.019531 1646.820312 822.648438 1646.820312 C 843.605469 1646.515625 864.566406 1646.210938 885.523438 1648.335938 C 905.570312 1650.464844 925.316406 1647.425781 945.058594 1645.605469 C 955.082031 1644.691406 964.800781 1645.605469 974.824219 1645.605469 C 984.847656 1645.605469 994.871094 1644.996094 1004.894531 1645.300781 C 1034.96875 1645.300781 1065.039062 1644.996094 1095.109375 1645.300781 C 1105.738281 1645.300781 1116.675781 1646.210938 1127.304688 1646.515625 C 1137.632812 1646.820312 1147.351562 1644.996094 1157.679688 1644.390625 C 1165.882812 1644.085938 1173.777344 1645.605469 1181.980469 1647.121094 C 1191.394531 1648.640625 1200.8125 1649.25 1210.226562 1649.25 C 1214.785156 1649.25 1219.339844 1648.335938 1223.898438 1648.640625 C 1229.0625 1648.945312 1233.617188 1649.855469 1238.476562 1648.640625 C 1241.816406 1648.035156 1243.335938 1644.085938 1242.730469 1641.046875 C 1242.425781 1639.527344 1243.03125 1637.707031 1243.335938 1635.882812 C 1243.640625 1635.277344 1243.945312 1634.972656 1244.246094 1634.363281 C 1244.550781 1633.453125 1244.550781 1632.238281 1244.246094 1631.023438 C 1244.246094 1619.480469 1245.460938 1608.242188 1246.070312 1597.003906 C 1246.679688 1584.246094 1246.375 1571.488281 1246.375 1559.035156 C 1246.375 1546.886719 1243.945312 1534.738281 1243.945312 1522.585938 C 1243.945312 1517.121094 1244.855469 1511.957031 1244.855469 1506.488281 C 1244.855469 1500.71875 1243.03125 1494.945312 1243.640625 1489.175781 C 1244.246094 1483.707031 1244.855469 1478.542969 1244.550781 1472.773438 C 1244.246094 1467 1243.03125 1461.230469 1243.03125 1455.457031 C 1242.730469 1449.6875 1243.640625 1443.917969 1243.640625 1437.839844 C 1243.640625 1431.460938 1242.730469 1425.085938 1242.730469 1418.402344 C 1242.425781 1405.949219 1242.121094 1392.886719 1242.730469 1380.433594 C 1243.335938 1369.195312 1246.070312 1357.957031 1244.246094 1346.71875 C 1240.601562 1322.417969 1244.855469 1297.816406 1244.855469 1273.210938 C 1244.855469 1260.453125 1243.945312 1247.394531 1245.160156 1234.636719 C 1246.375 1222.789062 1246.679688 1211.550781 1246.679688 1199.703125 C 1246.679688 1187.25 1247.894531 1174.796875 1248.5 1162.34375 C 1249.109375 1149.890625 1248.5 1137.132812 1249.410156 1124.679688 C 1249.714844 1118.300781 1249.109375 1112.53125 1248.804688 1106.152344 C 1248.804688 1099.46875 1249.410156 1093.089844 1249.714844 1086.40625 C 1250.324219 1074.257812 1250.324219 1061.804688 1250.929688 1049.652344 C 1250.625 1036.289062 1249.714844 1024.746094 1248.5 1012.902344 Z M 1137.9375 156.640625 C 1137.632812 156.335938 1137.9375 156.335938 1137.9375 156.640625 Z M 750.660156 158.464844 Z M 292.917969 145.707031 C 292.917969 145.097656 293.523438 145.097656 292.917969 145.707031 Z M 123.730469 135.378906 C 124.035156 134.773438 124.335938 135.074219 123.730469 135.378906 Z M 1220.554688 1634.667969 C 1215.390625 1634.667969 1210.53125 1635.578125 1205.367188 1635.277344 C 1196.257812 1635.277344 1187.75 1634.363281 1178.941406 1632.542969 C 1171.046875 1631.023438 1163.148438 1629.808594 1155.25 1630.71875 C 1144.921875 1631.632812 1135.203125 1633.148438 1124.570312 1632.542969 C 1092.375 1631.023438 1060.480469 1631.632812 1028.589844 1631.328125 C 1010.972656 1631.328125 993.050781 1631.933594 975.433594 1631.933594 C 965.714844 1631.933594 956.296875 1630.71875 946.578125 1631.632812 C 936.855469 1632.542969 927.441406 1634.0625 917.722656 1634.667969 C 897.675781 1636.1875 877.625 1632.847656 857.578125 1632.847656 C 847.253906 1632.847656 836.925781 1632.847656 826.292969 1632.847656 C 815.964844 1632.847656 805.335938 1633.757812 795.007812 1632.847656 C 785.289062 1631.933594 775.566406 1629.503906 765.542969 1629.503906 C 756.128906 1629.503906 747.015625 1631.632812 737.601562 1631.328125 C 716.945312 1630.417969 695.988281 1631.632812 675.332031 1629.808594 C 654.070312 1627.988281 632.503906 1628.898438 611.242188 1628.898438 C 600.914062 1628.898438 590.890625 1629.808594 580.5625 1630.113281 C 570.539062 1630.71875 560.515625 1627.988281 550.796875 1627.074219 C 540.46875 1626.164062 530.75 1627.074219 520.421875 1627.988281 C 510.398438 1628.898438 500.980469 1627.683594 490.957031 1626.773438 C 485.792969 1626.164062 480.933594 1626.773438 476.074219 1627.074219 C 470.609375 1627.378906 465.445312 1626.773438 460.28125 1626.46875 C 449.953125 1626.46875 439.320312 1626.46875 428.996094 1626.46875 C 408.339844 1626.164062 387.988281 1625.859375 367.332031 1628.59375 C 357.308594 1629.808594 346.984375 1626.46875 336.960938 1626.46875 C 327.238281 1626.46875 317.214844 1626.164062 307.496094 1627.378906 C 302.941406 1627.988281 298.382812 1628.59375 293.828125 1627.988281 C 288.664062 1627.378906 283.804688 1626.46875 278.640625 1626.164062 C 274.386719 1625.859375 269.832031 1625.554688 265.273438 1625.253906 C 260.414062 1625.253906 255.554688 1626.46875 250.695312 1626.46875 C 246.140625 1626.46875 241.582031 1625.859375 237.027344 1626.773438 C 231.863281 1627.683594 228.523438 1628.898438 223.359375 1627.988281 C 219.105469 1627.378906 215.460938 1627.378906 211.207031 1627.988281 C 206.042969 1628.59375 200.882812 1628.289062 195.71875 1628.59375 C 185.085938 1629.203125 175.0625 1631.023438 164.433594 1630.417969 C 153.800781 1630.113281 143.167969 1629.503906 132.539062 1630.71875 C 127.375 1631.328125 122.515625 1632.542969 117.351562 1632.847656 C 112.492188 1633.148438 107.933594 1631.632812 103.074219 1631.023438 C 93.355469 1629.808594 83.027344 1630.71875 73.308594 1630.71875 C 72.699219 1630.71875 69.664062 1630.71875 69.359375 1630.71875 C 69.359375 1630.417969 69.054688 1629.203125 69.054688 1629.203125 C 68.449219 1625.859375 68.144531 1622.824219 67.234375 1619.785156 C 66.929688 1611.28125 66.625 1602.777344 68.144531 1594.574219 C 70.269531 1583.03125 68.144531 1572.402344 67.234375 1560.859375 C 66.625 1555.085938 68.75 1549.316406 69.054688 1543.546875 C 69.359375 1537.167969 69.054688 1530.484375 69.054688 1524.105469 C 69.054688 1510.742188 69.054688 1497.679688 69.054688 1484.316406 C 69.054688 1472.164062 69.359375 1460.015625 70.269531 1447.5625 C 71.183594 1435.109375 68.449219 1423.566406 70.269531 1411.113281 C 71.183594 1406.253906 71.789062 1401.089844 71.183594 1396.226562 C 70.574219 1390.761719 69.359375 1385.902344 69.359375 1380.128906 C 69.359375 1367.675781 68.75 1355.222656 69.054688 1343.074219 C 69.054688 1338.214844 69.964844 1333.050781 70.269531 1328.1875 C 70.574219 1321.8125 69.359375 1315.433594 69.359375 1309.054688 C 69.359375 1296.296875 69.359375 1283.234375 69.359375 1270.476562 C 69.359375 1257.71875 69.964844 1245.265625 69.664062 1232.507812 C 69.359375 1220.054688 68.449219 1207.601562 67.839844 1195.148438 C 67.535156 1183 68.449219 1170.242188 67.535156 1158.089844 C 66.929688 1152.625 65.714844 1147.460938 66.019531 1141.691406 C 66.019531 1135.3125 67.234375 1129.234375 67.839844 1122.855469 C 69.054688 1097.949219 68.144531 1072.433594 67.839844 1047.222656 C 67.535156 1035.378906 68.75 1024.140625 68.144531 1012.292969 C 67.535156 1000.75 69.054688 989.511719 67.535156 977.96875 C 65.714844 966.125 67.234375 953.671875 66.625 941.824219 C 66.019531 929.066406 66.320312 916.308594 66.320312 903.554688 C 66.320312 891.097656 66.625 878.949219 67.839844 866.496094 C 68.75 854.648438 68.144531 842.195312 68.144531 830.351562 C 68.144531 818.503906 67.234375 806.355469 69.054688 794.507812 C 69.964844 789.648438 69.359375 785.09375 68.449219 779.929688 C 67.535156 773.550781 67.535156 766.867188 67.234375 760.183594 C 66.625 748.035156 67.234375 736.1875 66.320312 724.34375 C 65.410156 712.191406 67.535156 700.347656 66.625 688.195312 C 65.714844 675.742188 64.5 663.59375 64.804688 651.140625 C 64.804688 638.988281 65.105469 626.839844 65.410156 614.691406 C 65.714844 609.222656 65.410156 603.753906 65.410156 598.289062 C 65.410156 592.214844 66.625 585.835938 66.320312 579.757812 C 66.019531 567.304688 64.5 555.15625 65.410156 542.703125 C 67.535156 517.796875 66.320312 492.28125 65.105469 467.375 C 63.890625 441.25 65.714844 415.128906 66.019531 389.007812 C 66.320312 364.101562 64.5 338.890625 64.5 313.679688 C 64.5 287.859375 64.804688 262.34375 65.410156 236.527344 C 65.714844 230.453125 64.5 224.679688 64.195312 218.605469 C 63.890625 212.226562 63.890625 205.847656 63.285156 199.46875 C 62.675781 194.003906 61.460938 188.839844 60.550781 183.675781 C 59.640625 178.511719 59.941406 173.042969 59.03125 167.878906 C 58.121094 163.019531 58.121094 160.285156 59.941406 155.730469 C 60.855469 153.90625 61.765625 151.78125 62.371094 149.960938 C 63.285156 150.566406 64.5 150.566406 66.019531 150.261719 C 79.078125 146.921875 93.355469 146.617188 107.023438 147.226562 C 110.972656 147.527344 116.136719 148.136719 120.996094 148.136719 C 120.996094 150.566406 121.300781 152.996094 121.90625 155.121094 C 122.515625 157.554688 123.425781 159.679688 124.335938 161.804688 C 122.820312 162.109375 121.300781 162.714844 119.78125 163.324219 C 115.832031 165.449219 112.792969 169.398438 110.667969 173.347656 C 108.542969 176.992188 107.632812 181.246094 106.113281 185.195312 C 104.59375 189.75 103.378906 194.609375 102.769531 199.46875 C 101.554688 208.582031 100.949219 217.390625 105.503906 225.59375 C 107.632812 229.238281 109.757812 232.882812 112.792969 235.917969 C 115.832031 238.957031 119.171875 241.386719 122.210938 244.121094 C 124.640625 246.246094 126.765625 248.675781 129.804688 249.890625 C 133.753906 251.714844 138.003906 251.410156 142.257812 251.714844 C 151.371094 252.019531 159.875 252.320312 168.378906 248.675781 C 175.367188 245.640625 181.746094 238.347656 185.085938 231.363281 C 185.996094 229.238281 186.300781 227.414062 187.515625 225.894531 C 188.730469 224.375 189.945312 223.160156 190.859375 221.339844 C 192.679688 218 194.503906 214.050781 194.199219 210.40625 C 194.199219 207.976562 192.679688 206.152344 192.074219 204.027344 C 191.464844 201.597656 191.160156 198.558594 190.554688 196.128906 C 189.339844 191.574219 187.820312 187.015625 185.695312 182.765625 C 183.566406 178.816406 180.226562 173.957031 176.582031 171.222656 C 174.457031 169.703125 172.328125 169.09375 169.59375 168.488281 C 168.988281 168.488281 168.683594 168.183594 168.378906 168.183594 C 169.898438 163.929688 170.203125 159.679688 171.113281 155.121094 C 171.417969 153.605469 171.722656 152.085938 171.722656 150.566406 C 171.722656 149.960938 171.722656 149.65625 171.722656 149.046875 C 171.722656 148.746094 172.023438 148.746094 172.328125 148.441406 C 172.632812 147.832031 172.9375 147.527344 172.9375 146.921875 C 175.972656 147.226562 179.011719 147.527344 182.050781 147.226562 C 190.859375 146.921875 199.96875 147.226562 208.777344 147.226562 C 217.585938 147.226562 227.003906 148.136719 235.8125 146.617188 C 239.457031 146.011719 242.796875 145.402344 246.746094 145.707031 C 247.355469 145.707031 247.65625 146.011719 248.265625 146.011719 C 246.746094 148.746094 246.140625 152.085938 246.441406 155.730469 C 246.746094 158.464844 247.050781 161.5 248.265625 164.539062 C 238.847656 169.398438 232.167969 182.15625 229.128906 191.269531 C 227.609375 196.128906 227.914062 200.078125 228.21875 204.9375 C 228.824219 210.40625 229.128906 215.265625 230.953125 220.429688 C 234.292969 228.933594 237.9375 236.527344 245.53125 241.996094 C 258.898438 251.410156 277.121094 255.359375 292.003906 247.460938 C 305.976562 240.171875 318.429688 222.25 316.910156 206.152344 C 316.304688 200.382812 314.480469 194.914062 312.050781 189.445312 C 309.925781 184.585938 308.101562 179.726562 305.671875 174.867188 C 303.242188 170.613281 300.207031 166.058594 295.953125 163.324219 C 294.738281 162.714844 293.523438 162.109375 292.308594 161.804688 C 293.21875 159.375 293.828125 156.945312 294.132812 154.515625 C 294.132812 153.300781 294.132812 152.085938 294.132812 151.175781 C 298.382812 152.085938 302.941406 152.390625 307.496094 152.390625 C 316 152.390625 324.808594 151.78125 333.011719 150.566406 C 340.605469 149.351562 348.804688 149.351562 356.703125 148.746094 C 360.652344 148.441406 364.902344 148.441406 369.15625 148.441406 C 370.980469 148.441406 372.800781 148.136719 374.625 148.136719 C 374.925781 151.476562 375.230469 154.820312 376.140625 157.855469 C 376.75 159.984375 377.054688 162.109375 377.660156 164.234375 C 377.660156 164.539062 377.660156 164.84375 377.964844 165.148438 C 377.660156 165.148438 377.359375 165.148438 377.359375 165.148438 C 376.140625 165.148438 374.625 164.84375 373.410156 165.148438 C 368.851562 165.449219 365.511719 168.488281 363.082031 172.132812 C 360.347656 176.386719 359.132812 181.546875 357.613281 186.105469 C 356.09375 190.660156 353.363281 194.609375 352.449219 199.167969 C 351.539062 204.027344 352.449219 208.582031 354.273438 212.835938 C 356.09375 217.390625 357.613281 222.25 359.4375 226.808594 C 363.386719 235.917969 371.890625 241.082031 380.394531 245.03125 C 384.949219 247.15625 389.507812 248.070312 394.367188 248.070312 C 399.226562 248.371094 404.085938 248.980469 408.644531 248.070312 C 412.59375 247.460938 417.148438 247.765625 421.097656 246.550781 C 425.652344 245.03125 429.601562 241.996094 432.941406 238.652344 C 439.929688 231.667969 443.574219 222.25 444.484375 212.53125 C 445.699219 201.597656 442.359375 190.355469 436.585938 181.246094 C 432.941406 175.472656 427.476562 168.792969 420.792969 165.753906 C 421.703125 163.929688 422.617188 162.109375 422.917969 159.984375 C 423.222656 157.855469 422.917969 156.035156 421.703125 154.515625 C 422.617188 154.515625 423.527344 154.210938 424.4375 154.210938 C 432.941406 152.691406 441.144531 150.871094 449.648438 149.65625 C 454.507812 149.046875 459.367188 147.527344 464.53125 148.136719 C 469.695312 148.746094 474.859375 148.746094 480.328125 148.441406 C 485.792969 148.136719 491.261719 148.136719 497.035156 148.136719 C 497.035156 148.136719 497.335938 148.136719 497.335938 148.136719 C 496.121094 151.476562 496.730469 154.820312 498.550781 157.554688 C 500.375 159.984375 502.804688 161.199219 505.539062 162.109375 C 499.464844 166.363281 493.085938 170.613281 488.527344 176.6875 C 486.707031 179.117188 486.097656 182.15625 483.972656 184.890625 C 480.933594 188.535156 479.414062 193.699219 478.199219 198.253906 C 475.769531 207.367188 477.59375 216.480469 481.847656 224.679688 C 485.792969 232.273438 491.871094 240.476562 499.160156 245.03125 C 514.347656 254.75 535.609375 258.09375 552.011719 248.980469 C 559.605469 244.425781 564.464844 237.132812 568.109375 229.238281 C 572.058594 220.730469 576.3125 211.921875 575.097656 202.203125 C 574.488281 196.734375 572.363281 192.179688 569.933594 187.320312 C 567.804688 183.066406 565.984375 178.511719 563.25 174.5625 C 558.996094 167.878906 552.316406 165.449219 545.632812 162.714844 C 547.457031 160.589844 550.1875 159.070312 551.707031 156.335938 C 552.617188 154.515625 552.921875 153.300781 552.617188 151.78125 C 553.226562 151.78125 554.136719 151.476562 554.746094 151.476562 C 558.085938 150.871094 561.730469 150.261719 565.074219 149.960938 C 572.96875 149.046875 580.5625 148.136719 588.765625 148.136719 C 596.359375 148.136719 603.953125 148.746094 611.546875 148.441406 C 614.886719 148.136719 618.53125 147.226562 621.871094 147.527344 C 622.480469 147.527344 622.785156 147.527344 623.390625 147.527344 C 623.085938 149.65625 623.085938 151.78125 623.695312 153.90625 C 624.605469 157.25 626.429688 159.679688 628.554688 161.804688 C 627.949219 162.414062 627.035156 163.324219 626.429688 163.929688 C 623.695312 166.363281 620.355469 168.183594 617.925781 170.917969 C 614.886719 174.257812 612.457031 178.511719 610.027344 182.15625 C 607.597656 185.800781 605.46875 190.054688 604.253906 194.304688 C 598.789062 212.226562 610.027344 230.148438 624.605469 240.171875 C 631.894531 245.335938 641.007812 249.585938 650.121094 250.5 C 658.929688 251.410156 667.738281 248.070312 675.332031 244.425781 C 691.429688 236.832031 702.0625 220.429688 700.847656 202.507812 C 700.542969 200.078125 700.542969 197.648438 699.632812 195.21875 C 698.71875 192.484375 697.203125 190.355469 696.59375 187.625 C 695.378906 182.460938 694.773438 177.296875 691.125 173.347656 C 687.785156 170.007812 683.53125 167.273438 679.28125 165.753906 C 677.761719 165.148438 675.941406 164.539062 674.117188 163.628906 C 674.421875 162.714844 675.027344 162.109375 675.332031 161.199219 C 676.851562 158.160156 676.242188 154.515625 673.207031 152.691406 C 671.078125 151.476562 668.953125 150.566406 667.132812 149.046875 C 672.902344 148.136719 678.671875 147.226562 684.445312 146.3125 C 686.570312 146.011719 688.695312 145.402344 691.125 145.097656 C 692.949219 144.796875 694.164062 145.402344 695.988281 145.707031 C 700.542969 146.617188 705.707031 146.921875 710.261719 147.226562 C 713.90625 147.527344 718.464844 147.832031 722.109375 146.617188 C 723.929688 146.011719 724.234375 145.707031 725.753906 146.3125 C 727.578125 147.226562 729.703125 147.527344 731.828125 147.527344 C 736.082031 147.527344 740.332031 147.832031 744.585938 147.527344 C 743.980469 148.136719 743.675781 148.441406 743.066406 149.046875 C 741.246094 151.175781 740.03125 153.605469 740.03125 156.035156 C 740.03125 158.464844 740.636719 160.894531 742.15625 163.019531 C 742.460938 163.628906 745.195312 165.753906 745.195312 166.664062 C 745.195312 166.96875 743.371094 168.183594 742.460938 168.488281 C 740.636719 169.703125 738.816406 171.222656 737.296875 173.042969 C 732.132812 179.726562 730.613281 188.535156 728.488281 196.734375 C 726.058594 205.542969 725.144531 215.871094 733.347656 221.945312 C 734.867188 223.160156 736.992188 223.769531 738.207031 224.984375 C 740.03125 226.503906 741.246094 229.238281 742.765625 231.058594 C 746.105469 235.007812 750.660156 238.652344 755.21875 241.082031 C 757.34375 242.296875 759.164062 243.511719 760.988281 245.03125 C 762.8125 246.550781 764.632812 248.070312 767.0625 248.675781 C 771.316406 249.890625 776.175781 249.285156 780.429688 248.371094 C 790.148438 246.550781 800.476562 244.726562 807.765625 237.742188 C 811.714844 234.097656 815.054688 229.84375 817.484375 224.984375 C 819.914062 220.125 820.523438 215.265625 821.433594 210.101562 C 822.042969 207.0625 822.648438 204.027344 822.34375 200.988281 C 822.042969 197.949219 821.128906 194.914062 821.128906 191.875 C 821.128906 186.710938 820.828125 181.851562 818.09375 177.296875 C 814.144531 170.007812 806.855469 165.449219 799.261719 162.414062 C 801.082031 159.679688 801.691406 156.035156 799.867188 152.691406 C 798.957031 151.175781 797.4375 149.960938 796.527344 148.136719 C 796.527344 148.136719 796.527344 147.832031 796.222656 147.832031 C 804.121094 148.136719 812.019531 148.441406 819.914062 148.746094 C 825.382812 148.746094 830.851562 147.832031 836.316406 147.226562 C 842.089844 146.617188 847.554688 146.617188 853.328125 146.617188 C 859.097656 146.617188 864.871094 146.617188 870.640625 146.617188 C 872.464844 146.617188 874.285156 146.3125 876.410156 146.3125 C 876.109375 147.226562 875.5 148.136719 875.195312 149.046875 C 874.285156 152.085938 874.894531 155.121094 876.109375 157.855469 C 877.019531 159.984375 877.929688 162.109375 879.144531 163.929688 C 876.410156 166.363281 874.285156 169.398438 872.464844 172.4375 C 867.90625 180.03125 860.921875 185.496094 858.1875 194.304688 C 855.453125 203.417969 856.667969 212.226562 860.007812 220.730469 C 863.046875 229.238281 867.601562 236.222656 875.5 241.082031 C 884.003906 246.246094 892.207031 250.5 902.535156 251.105469 C 911.644531 251.714844 922.582031 252.019531 930.480469 246.855469 C 937.769531 242.296875 943.234375 233.792969 946.878906 225.894531 C 949.007812 221.035156 950.828125 216.175781 952.652344 211.316406 C 953.5625 209.492188 954.171875 207.367188 954.171875 205.242188 C 954.472656 202.507812 953.5625 200.078125 952.957031 197.648438 C 951.742188 191.875 951.4375 187.015625 948.398438 181.546875 C 945.96875 176.992188 942.628906 172.738281 938.070312 170.613281 C 935.945312 169.703125 934.125 168.488281 932.300781 167.578125 C 931.085938 166.96875 929.871094 166.664062 928.65625 166.363281 C 931.390625 164.84375 932.300781 160.589844 930.480469 158.160156 C 929.566406 156.945312 928.65625 155.730469 927.746094 154.820312 C 928.351562 154.820312 928.960938 154.820312 929.261719 154.820312 C 939.289062 154.820312 949.3125 155.121094 959.335938 153.300781 C 968.445312 151.78125 978.46875 150.566406 987.582031 153.300781 C 991.835938 154.515625 994.871094 155.121094 999.429688 154.210938 C 1000.644531 153.90625 1001.859375 153.605469 1003.074219 153.300781 C 1003.074219 155.730469 1003.378906 158.464844 1003.679688 160.589844 C 1003.984375 162.109375 1004.289062 163.929688 1004.894531 165.753906 C 1001.554688 166.96875 998.519531 168.792969 996.085938 170.917969 C 993.050781 173.347656 990.316406 176.6875 988.796875 180.03125 C 986.976562 183.980469 986.367188 188.535156 984.242188 192.179688 C 981.8125 196.128906 979.988281 200.078125 980.902344 204.632812 C 981.203125 206.757812 981.8125 208.582031 982.417969 210.707031 C 983.332031 213.746094 983.632812 216.785156 984.546875 219.820312 C 985.761719 223.769531 987.582031 227.109375 990.011719 230.453125 C 992.746094 234.402344 995.785156 238.652344 999.125 242.296875 C 1005.808594 249.585938 1014.921875 252.019531 1024.03125 254.75 C 1027.980469 255.964844 1031.625 256.878906 1035.574219 256.269531 C 1040.132812 255.664062 1044.078125 253.535156 1048.027344 251.105469 C 1054.710938 246.550781 1062.609375 244.121094 1067.773438 237.4375 C 1073.542969 230.148438 1075.972656 221.644531 1076.582031 212.53125 C 1076.882812 207.367188 1077.492188 201.597656 1076.277344 196.433594 C 1074.757812 190.660156 1071.113281 185.800781 1068.074219 181.246094 C 1065.339844 176.992188 1062 173.347656 1058.050781 170.613281 C 1056.835938 169.703125 1055.621094 169.09375 1054.40625 168.488281 C 1056.53125 166.363281 1058.355469 163.628906 1058.355469 160.589844 C 1058.660156 157.25 1056.835938 153.90625 1054.40625 151.78125 C 1053.800781 151.175781 1052.886719 150.566406 1051.976562 150.261719 C 1054.710938 149.65625 1058.050781 149.960938 1061.089844 150.566406 C 1069.898438 152.085938 1078.097656 152.691406 1086.90625 152.390625 C 1091.769531 152.085938 1096.929688 151.78125 1102.09375 152.085938 C 1107.257812 152.390625 1112.117188 152.390625 1117.28125 151.175781 C 1121.535156 150.261719 1126.089844 149.960938 1130.648438 150.261719 C 1129.128906 152.996094 1127.304688 155.121094 1127.609375 158.464844 C 1127.914062 161.804688 1130.34375 164.234375 1132.773438 166.363281 C 1132.773438 166.363281 1133.078125 166.664062 1133.382812 166.664062 C 1132.46875 166.96875 1131.863281 166.96875 1130.949219 167.273438 C 1126.394531 168.792969 1121.839844 171.222656 1118.496094 174.257812 C 1111.816406 180.332031 1107.867188 190.355469 1106.652344 199.167969 C 1105.4375 208.886719 1108.171875 218.605469 1112.117188 227.71875 C 1115.761719 235.917969 1121.230469 242.296875 1129.128906 246.550781 C 1143.707031 254.144531 1162.238281 256.878906 1177.121094 248.980469 C 1184.105469 245.335938 1190.484375 238.652344 1195.042969 232.578125 C 1200.8125 225.289062 1204.457031 216.480469 1203.851562 207.0625 C 1203.242188 197.34375 1197.472656 189.445312 1192.914062 181.246094 C 1190.789062 176.992188 1187.75 173.347656 1183.800781 170.613281 C 1181.980469 169.09375 1179.550781 167.878906 1177.425781 167.273438 C 1177.121094 166.96875 1176.511719 166.96875 1175.90625 166.96875 C 1176.816406 165.753906 1178.03125 164.539062 1179.246094 163.929688 C 1181.371094 162.714844 1182.890625 159.375 1181.980469 156.945312 C 1181.070312 154.210938 1179.550781 152.085938 1177.425781 150.261719 C 1179.246094 150.261719 1180.765625 150.261719 1181.980469 150.261719 C 1187.75 150.566406 1194.128906 149.351562 1199.597656 150.871094 C 1202.9375 151.78125 1205.976562 151.78125 1209.316406 151.78125 C 1212.660156 151.78125 1216 153.300781 1219.339844 153.605469 C 1222.378906 153.90625 1225.414062 153.90625 1228.453125 153.90625 C 1230.578125 153.605469 1232.707031 152.691406 1234.832031 152.390625 C 1234.832031 154.515625 1235.136719 156.640625 1235.742188 158.769531 C 1236.652344 162.714844 1234.832031 165.753906 1234.527344 170.007812 C 1233.617188 182.460938 1235.136719 194.609375 1233.617188 207.0625 C 1231.1875 230.453125 1230.277344 253.535156 1230.578125 277.230469 C 1230.578125 290.289062 1230.882812 303.046875 1230.882812 316.109375 C 1231.1875 327.347656 1232.097656 338.585938 1231.492188 349.824219 C 1230.882812 361.671875 1228.453125 373.210938 1228.757812 385.058594 C 1228.757812 397.511719 1229.0625 409.964844 1229.0625 422.117188 C 1229.0625 434.871094 1228.757812 447.628906 1228.757812 460.691406 C 1228.757812 472.539062 1231.1875 484.382812 1231.1875 496.53125 C 1231.1875 522.351562 1231.1875 548.472656 1231.1875 574.292969 C 1231.1875 599.199219 1232.097656 624.105469 1231.1875 649.011719 C 1230.277344 673.007812 1233.921875 697.308594 1236.65625 721 C 1237.871094 732.542969 1237.871094 744.695312 1237.566406 756.234375 C 1237.566406 762.007812 1236.65625 767.777344 1236.65625 773.550781 C 1236.351562 779.015625 1237.261719 784.484375 1237.566406 790.253906 C 1238.171875 814.859375 1237.566406 839.765625 1237.566406 864.371094 C 1237.566406 876.824219 1237.566406 889.277344 1237.566406 902.035156 C 1237.566406 914.183594 1235.4375 926.03125 1235.136719 938.179688 C 1235.136719 950.9375 1236.351562 963.695312 1237.261719 976.453125 C 1237.871094 987.992188 1236.65625 999.839844 1237.566406 1011.382812 C 1238.476562 1023.226562 1239.996094 1034.46875 1239.386719 1046.3125 C 1239.085938 1059.070312 1239.085938 1071.828125 1238.171875 1084.585938 C 1236.957031 1109.492188 1237.871094 1134.398438 1236.957031 1159.304688 C 1236.351562 1172.367188 1235.136719 1185.125 1235.136719 1198.1875 C 1235.136719 1210.03125 1234.832031 1221.269531 1233.617188 1233.117188 C 1232.402344 1245.265625 1233.3125 1258.023438 1233.3125 1270.175781 C 1233.3125 1282.628906 1233.007812 1295.382812 1232.097656 1307.839844 C 1231.1875 1319.683594 1230.277344 1331.53125 1232.402344 1343.375 C 1234.527344 1355.527344 1231.792969 1366.765625 1231.1875 1378.609375 C 1230.578125 1391.066406 1230.882812 1404.125 1231.1875 1416.578125 C 1231.1875 1422.652344 1232.097656 1428.425781 1232.097656 1434.5 C 1232.097656 1440.878906 1231.1875 1446.953125 1231.492188 1453.332031 C 1231.792969 1458.800781 1232.707031 1463.964844 1233.007812 1469.429688 C 1233.617188 1475.507812 1232.707031 1481.582031 1232.097656 1487.65625 C 1231.792969 1493.125 1233.3125 1497.984375 1233.3125 1503.449219 C 1233.3125 1509.222656 1232.402344 1514.992188 1232.402344 1520.765625 C 1232.402344 1532.914062 1234.832031 1545.0625 1234.832031 1557.214844 C 1234.832031 1569.972656 1235.136719 1582.726562 1234.527344 1595.183594 C 1233.921875 1606.421875 1233.007812 1617.660156 1232.707031 1628.898438 C 1232.707031 1629.203125 1232.707031 1629.503906 1232.707031 1629.808594 C 1232.707031 1631.632812 1232.402344 1633.757812 1231.792969 1635.582031 C 1227.542969 1635.578125 1224.199219 1634.667969 1220.554688 1634.667969 Z M 1220.554688 1634.667969" style="stroke:none;fill-rule:nonzero;fill:#000000;fill-opacity:1;"/></g></g></svg>