<svg version="1.2" preserveAspectRatio="xMidYMid meet" viewBox="32.25598848 440.062829409382 1251.0720000000001 801.7919661280001" zoomAndPan="magnify" xmlns:xlink="http://www.w3.org/1999/xlink" xmlns="http://www.w3.org/2000/svg" style="max-height: 500px" width="1251.0720000000001" height="801.7919661280001"><g id="989bc836a2"><rect style="fill: #00000000;fill-opacity:1;stroke:none;" height="1727.999927" y="0" width="1296" x="0"/><rect style="fill: #00000000;fill-opacity:1;stroke:none;" height="1727.999927" y="0" width="1296" x="0"/><path d="M 319.402344 647.082031 C 441.417969 620.222656 563.941406 595.664062 687.75 577.757812 L 706.167969 575.203125 L 718.445312 573.410156 C 726.886719 572.132812 721.515625 572.898438 719.722656 573.15625 C 734.558594 571.109375 749.394531 569.316406 764.488281 567.527344 C 792.113281 564.203125 819.738281 561.132812 847.367188 558.574219 C 903.640625 553.203125 959.917969 549.109375 1016.449219 546.550781 C 1085.511719 543.226562 1154.832031 541.691406 1223.898438 541.179688 L 1212.898438 459.835938 C 1193.714844 468.023438 1174.53125 475.953125 1155.34375 484.136719 L 1132.324219 493.859375 L 1121.324219 498.460938 C 1129.253906 495.136719 1115.441406 501.019531 1114.164062 501.53125 C 1089.09375 512.019531 1064.027344 522.25 1038.445312 531.460938 C 981.660156 551.925781 923.339844 565.738281 864.25 578.527344 C 700.539062 613.828125 536.0625 649.125 371.585938 684.425781 L 92.765625 744.28125 C 72.558594 748.632812 60.535156 770.375 63.09375 789.816406 C 65.90625 810.277344 83.046875 825.625 103.765625 825.882812 C 394.09375 826.648438 684.421875 827.417969 974.753906 839.183594 C 1056.609375 842.507812 1138.464844 846.859375 1220.0625 851.972656 L 1220.0625 769.09375 C 920.269531 793.90625 619.707031 820 324.003906 878.066406 C 238.3125 894.949219 153.390625 914.644531 68.976562 937.152344 C 52.09375 941.757812 37.769531 959.152344 38.535156 977.058594 C 39.304688 993.941406 50.816406 1013.894531 68.976562 1016.960938 C 282.566406 1052.261719 497.179688 1082.957031 712.304688 1109.050781 C 772.671875 1116.46875 833.042969 1123.375 893.410156 1130.023438 L 893.410156 1047.148438 C 725.09375 1062.75 557.546875 1085.261719 390.769531 1114.933594 C 342.679688 1123.375 294.589844 1132.582031 246.753906 1142.046875 C 225.523438 1146.394531 211.199219 1172.742188 217.851562 1192.949219 C 225.269531 1215.460938 245.988281 1226.460938 268.753906 1221.855469 C 475.183594 1180.160156 683.65625 1149.464844 893.410156 1129.769531 C 914.898438 1127.722656 935.871094 1112.117188 934.847656 1088.328125 C 933.824219 1063.773438 916.6875 1049.449219 893.410156 1046.890625 C 682.632812 1023.613281 478.25 997.011719 269.519531 965.035156 C 210.175781 956.082031 150.574219 946.617188 91.230469 936.640625 L 91.230469 1016.449219 C 239.082031 976.800781 389.488281 946.875 540.664062 923.597656 C 681.867188 901.855469 826.390625 886.25 972.195312 872.691406 C 1054.816406 865.019531 1137.695312 858.367188 1220.574219 851.460938 C 1242.0625 849.671875 1263.035156 833.8125 1262.011719 810.023438 C 1260.988281 786.234375 1243.851562 770.117188 1220.574219 768.582031 C 932.035156 749.65625 642.730469 745.050781 353.421875 743.261719 C 270.542969 742.75 187.410156 742.492188 104.53125 742.238281 L 115.53125 823.582031 L 613.824219 716.65625 L 857.855469 664.21875 C 920.78125 650.660156 983.707031 637.359375 1044.585938 616.640625 C 1109.300781 594.640625 1175.042969 564.714844 1235.921875 539.132812 C 1255.105469 530.949219 1268.664062 515.855469 1265.59375 493.601562 C 1262.78125 473.136719 1245.386719 458.046875 1224.921875 457.789062 C 1105.210938 458.8125 985.753906 462.90625 866.550781 473.648438 C 749.140625 484.136719 632.496094 500.765625 516.621094 521.996094 C 443.464844 535.296875 370.816406 550.644531 298.425781 566.503906 C 277.195312 571.109375 262.871094 596.945312 269.519531 617.40625 C 275.660156 640.429688 296.636719 652.195312 319.402344 647.082031 Z M 319.402344 647.082031" style="stroke:none;fill-rule:nonzero;fill:#fcd93e;fill-opacity:1;"/></g></svg>