<svg version="1.2" preserveAspectRatio="xMidYMid meet" viewBox="57.60011519999999 537.985129272618 1185.408 660.095972114" zoomAndPan="magnify" xmlns:xlink="http://www.w3.org/1999/xlink" xmlns="http://www.w3.org/2000/svg" style="max-height: 500px" width="1185.408" height="660.095972114"><defs><clipPath id="4bf05a4cbf"><path d="M 1050 1039 L 1226 1039 L 1226 1180.484375 L 1050 1180.484375 Z M 1050 1039"/></clipPath></defs><g id="5ae0fbf938"><rect style="fill: #00000000;fill-opacity:1;stroke:none;" height="1727.999927" y="0" width="1296" x="0"/><rect style="fill: #00000000;fill-opacity:1;stroke:none;" height="1727.999927" y="0" width="1296" x="0"/><g clip-path="url(#4bf05a4cbf)" clip-rule="nonzero"><path d="M 1213.652344 1180.445312 C 1213.417969 1180.445312 1213.160156 1180.445312 1212.914062 1180.421875 L 1061.175781 1170.886719 C 1054.664062 1170.472656 1049.746094 1164.871094 1050.132812 1158.378906 C 1050.542969 1151.890625 1056.234375 1146.710938 1062.648438 1147.351562 L 1187.890625 1155.226562 L 1110.578125 1058.152344 C 1106.523438 1053.070312 1107.359375 1045.65625 1112.453125 1041.578125 C 1117.550781 1037.503906 1124.972656 1038.378906 1129.015625 1043.464844 L 1222.875 1161.304688 C 1225.777344 1164.941406 1226.261719 1169.964844 1224.113281 1174.109375 C 1222.070312 1178.023438 1218.035156 1180.445312 1213.652344 1180.445312" style="stroke:none;fill-rule:nonzero;fill:#040606;fill-opacity:1;"/></g><path d="M 997.429688 639.84375 C 992.578125 639.84375 987.566406 640.472656 982.394531 641.757812 C 938.859375 652.496094 891.90625 706.332031 856.679688 761.71875 C 952.640625 749.269531 1039.804688 728.605469 1054.558594 696.128906 C 1056.332031 692.234375 1061.71875 680.382812 1038.300781 657.875 C 1025.742188 645.804688 1012.265625 639.84375 997.429688 639.84375 Z M 1192.148438 1176.710938 C 1189.339844 1176.710938 1186.515625 1175.71875 1184.269531 1173.691406 C 1152.796875 1145.425781 1091.617188 1124.742188 1026.867188 1102.867188 C 896.480469 1058.796875 734.234375 1003.976562 784.132812 854.335938 C 789.492188 838.203125 799.453125 815.386719 812.867188 790.195312 C 695.261719 801.683594 582.761719 800.960938 580.539062 800.695312 L 570.582031 799.824219 C 465.789062 790.824219 187.417969 766.917969 100.542969 655.386719 C 78.15625 626.675781 69.753906 594.023438 75.554688 558.375 C 76.605469 551.976562 82.582031 547.597656 89.097656 548.632812 C 95.523438 549.683594 99.882812 555.738281 98.839844 562.167969 C 94.058594 591.476562 100.703125 617.234375 119.132812 640.90625 C 199.707031 744.308594 480.371094 768.429688 572.597656 776.351562 L 582.601562 777.203125 C 609.65625 779.53125 719.621094 777.234375 826.8125 765.304688 C 864.210938 701.984375 919.496094 633.003906 976.746094 618.867188 C 1005.410156 611.789062 1032.292969 619.414062 1054.644531 640.867188 C 1078.15625 663.496094 1085.355469 685.367188 1076.027344 705.894531 C 1055.535156 750.953125 949.871094 774.71875 841.34375 787.179688 C 825.445312 815.105469 813.15625 841.808594 806.5 861.800781 C 764.027344 989.152344 901.484375 1035.613281 1034.414062 1080.511719 C 1101.546875 1103.195312 1164.941406 1124.632812 1200.03125 1156.152344 C 1204.863281 1160.503906 1205.269531 1167.964844 1200.914062 1172.796875 C 1198.574219 1175.398438 1195.367188 1176.710938 1192.148438 1176.710938" style="stroke:none;fill-rule:nonzero;fill:#040606;fill-opacity:1;"/></g></svg>