<svg xmlns="http://www.w3.org/2000/svg" xmlns:xlink="http://www.w3.org/1999/xlink" width="1728" zoomAndPan="magnify" viewBox="0 0 1296 1727.999927" height="2304" preserveAspectRatio="xMidYMid meet" version="1.2"><defs><clipPath id="203657c314"><path d="M 97.667969 599 L 1198.667969 599 L 1198.667969 1036.714844 L 97.667969 1036.714844 Z M 97.667969 599 "/></clipPath></defs><g id="8626241375"><rect x="0" width="1296" y="0" height="1727.999927" style="fill: #00000000;fill-opacity:1;stroke:none;"/><rect x="0" width="1296" y="0" height="1727.999927" style="fill: #00000000;fill-opacity:1;stroke:none;"/><g clip-rule="nonzero" clip-path="url(#203657c314)"><path style=" stroke:none;fill-rule:nonzero;fill:#000000;fill-opacity:1;" d="M 1198.5625 930.820312 C 1170.457031 941.25 1157.230469 970.414062 1147.042969 1000.160156 L 1146.824219 1000.796875 C 1143.949219 1008.347656 1142.167969 1015.554688 1139.78125 1023.375 C 1138.5625 1027.246094 1137.421875 1031.214844 1136.394531 1035.179688 L 1106.058594 1036.242188 C 1102.941406 1026.265625 1098.347656 1017.089844 1092.289062 1008.769531 C 1075.574219 986.601562 1049.359375 979.925781 1023.078125 989.210938 L 1013.085938 959.1875 C 1041.070312 949.472656 1072.71875 951.992188 1096.59375 969.375 C 1088.597656 937.34375 1072.839844 903.558594 1054.132812 873.625 C 1048.253906 864.933594 1042.402344 855.78125 1036.183594 847.84375 L 1035.773438 847.292969 C 1029.917969 839.078125 1022.714844 830.832031 1016.097656 822.730469 C 1009.003906 815.023438 1001.867188 806.699219 994.570312 799.683594 L 985.847656 790.929688 C 970 775.890625 951.304688 760.15625 933.84375 747.171875 L 914.191406 733.292969 L 893.964844 720.269531 L 873.1875 708.097656 L 851.925781 696.792969 C 828.902344 685.363281 802.675781 673.953125 778.464844 665.632812 C 756.097656 657.757812 731.480469 650.980469 708.464844 645.699219 C 693.195312 642.4375 672.347656 638.78125 657.007812 636.625 C 642.324219 634.777344 619.683594 632.714844 604.8125 631.972656 C 586.304688 631.039062 559.210938 631.492188 540.476562 632.074219 C 515.316406 633.585938 484.648438 635.949219 460.0625 640.027344 C 439.902344 643 419.226562 647.039062 396.855469 652.371094 C 382.230469 656 364.335938 660.824219 350.109375 665.519531 C 336.164062 669.773438 318.734375 676.175781 305.339844 681.539062 L 282.242188 691.296875 C 277.390625 693.488281 258.785156 702.660156 253.671875 705.09375 C 227.519531 718.988281 203.09375 734.058594 179.457031 751.785156 L 166.472656 762.25 C 150.492188 774.871094 134.710938 790.808594 120.613281 805.945312 L 97.667969 784.140625 C 105.019531 776.644531 113.789062 766.609375 121.648438 759.589844 C 130.054688 751.980469 137.773438 744.34375 147.109375 737.214844 L 160.167969 726.691406 C 164.777344 723.210938 169.257812 720.167969 173.839844 716.863281 C 181.699219 711 193.449219 703.425781 202.015625 698.203125 C 214.296875 690.199219 226.882812 683.878906 239.441406 676.828125 C 245.652344 673.882812 263.949219 664.78125 269.957031 662.136719 C 269.957031 662.136719 292.550781 652.59375 292.550781 652.59375 C 300.824219 648.949219 315.664062 643.941406 324.167969 640.734375 C 333.691406 637.183594 346.640625 633.589844 356.320312 630.46875 C 366.066406 627.351562 379.464844 624.300781 389.355469 621.628906 C 412.59375 616.089844 434.125 611.882812 455.167969 608.765625 C 481.515625 604.421875 512.695312 602.046875 539.414062 600.453125 C 559.414062 599.839844 586.828125 599.382812 606.5 600.378906 C 622.207031 601.148438 645.984375 603.34375 661.523438 605.304688 C 677.582031 607.554688 699.574219 611.445312 715.585938 614.871094 C 739.382812 620.328125 765.335938 627.472656 788.109375 635.496094 C 814.207031 644.398438 841.769531 656.425781 866.515625 668.707031 L 888.929688 680.636719 L 910.832031 693.488281 L 932.171875 707.246094 L 952.917969 721.910156 C 971.660156 735.855469 991.117188 752.285156 1008.058594 768.375 L 1016.664062 777.019531 C 1025.011719 785.074219 1032.074219 793.347656 1039.71875 801.652344 L 1040.347656 802.378906 C 1047.460938 811.085938 1054.609375 819.238281 1061.355469 828.636719 C 1068.464844 837.777344 1074.328125 846.976562 1080.621094 856.28125 L 1081.113281 857.054688 C 1101.558594 889.765625 1118.992188 927.410156 1127.617188 962.941406 C 1140.382812 935.03125 1159.726562 910.5625 1188.566406 900.800781 Z M 1198.5625 930.820312 "/></g></g></svg>