<svg xmlns="http://www.w3.org/2000/svg" xmlns:xlink="http://www.w3.org/1999/xlink" width="1728" zoomAndPan="magnify" viewBox="0 0 1296 1727.999927" height="2304" preserveAspectRatio="xMidYMid meet" version="1.2"><defs><clipPath id="a73fd613ef"><path d="M 104.683594 648 L 1191.433594 648 L 1191.433594 1080 L 104.683594 1080 Z M 104.683594 648 "/></clipPath></defs><g id="2e96f0b175"><rect x="0" width="1296" y="0" height="1727.999927" style="fill: #00000000;fill-opacity:1;stroke:none;"/><rect x="0" width="1296" y="0" height="1727.999927" style="fill: #00000000;fill-opacity:1;stroke:none;"/><g clip-rule="nonzero" clip-path="url(#a73fd613ef)"><path style=" stroke:none;fill-rule:nonzero;fill:#fcde57;fill-opacity:1;" d="M 1191.214844 975.726562 C 1163.476562 986.027344 1150.417969 1014.835938 1140.363281 1044.21875 L 1140.148438 1044.847656 C 1137.3125 1052.308594 1135.550781 1059.425781 1133.199219 1067.152344 C 1131.996094 1070.976562 1130.871094 1074.898438 1129.855469 1078.816406 L 1099.914062 1079.863281 C 1096.839844 1070.007812 1092.304688 1060.941406 1086.324219 1052.726562 C 1069.828125 1030.824219 1043.957031 1024.230469 1018.015625 1033.40625 L 1008.15625 1003.746094 C 1035.773438 994.148438 1067.007812 996.636719 1090.574219 1013.808594 C 1082.679688 982.167969 1067.128906 948.792969 1048.667969 919.222656 C 1042.867188 910.636719 1037.089844 901.59375 1030.953125 893.753906 L 1030.546875 893.210938 C 1024.765625 885.09375 1017.660156 876.953125 1011.128906 868.949219 C 1004.128906 861.335938 997.082031 853.113281 989.878906 846.183594 L 981.273438 837.535156 C 965.632812 822.675781 947.183594 807.136719 929.949219 794.308594 L 910.550781 780.597656 L 890.589844 767.730469 L 870.085938 755.707031 L 849.097656 744.542969 C 826.378906 733.25 800.492188 721.980469 776.597656 713.761719 C 754.519531 705.984375 730.222656 699.285156 707.507812 694.070312 C 692.441406 690.847656 671.867188 687.238281 656.726562 685.105469 C 642.234375 683.28125 619.886719 681.242188 605.210938 680.511719 C 586.945312 679.589844 560.203125 680.039062 541.714844 680.609375 C 516.878906 682.105469 486.617188 684.4375 462.351562 688.46875 C 442.453125 691.40625 422.046875 695.394531 399.964844 700.660156 C 385.53125 704.246094 367.871094 709.007812 353.832031 713.652344 C 340.070312 717.851562 322.867188 724.175781 309.644531 729.472656 L 286.851562 739.113281 C 282.0625 741.277344 263.699219 750.339844 258.652344 752.742188 C 232.839844 766.46875 208.734375 781.355469 185.40625 798.863281 L 172.589844 809.203125 C 156.820312 821.671875 141.242188 837.414062 127.332031 852.367188 L 104.683594 830.828125 C 111.9375 823.421875 120.59375 813.507812 128.351562 806.578125 C 136.648438 799.058594 144.265625 791.515625 153.480469 784.472656 L 166.367188 774.074219 C 170.914062 770.636719 175.339844 767.632812 179.863281 764.367188 C 187.617188 758.574219 199.214844 751.09375 207.667969 745.933594 C 219.792969 738.027344 232.214844 731.785156 244.605469 724.820312 C 250.734375 721.910156 268.792969 712.917969 274.722656 710.308594 C 274.722656 710.308594 297.023438 700.878906 297.023438 700.878906 C 305.1875 697.28125 319.835938 692.332031 328.226562 689.167969 C 337.625 685.65625 350.40625 682.105469 359.960938 679.023438 C 369.582031 675.945312 382.804688 672.929688 392.566406 670.292969 C 415.5 664.820312 436.75 660.664062 457.515625 657.585938 C 483.523438 653.292969 514.296875 650.949219 540.664062 649.375 C 560.40625 648.769531 587.460938 648.316406 606.875 649.300781 C 622.375 650.0625 645.84375 652.230469 661.179688 654.164062 C 677.03125 656.390625 698.738281 660.230469 714.539062 663.617188 C 738.023438 669.007812 763.640625 676.0625 786.113281 683.992188 C 811.875 692.785156 839.074219 704.667969 863.496094 716.796875 L 885.617188 728.585938 L 907.234375 741.277344 L 928.300781 754.867188 L 948.773438 769.355469 C 967.269531 783.128906 986.472656 799.359375 1003.195312 815.253906 L 1011.6875 823.792969 C 1019.925781 831.75 1026.894531 839.921875 1034.441406 848.125 L 1035.0625 848.84375 C 1042.082031 857.445312 1049.136719 865.5 1055.792969 874.78125 C 1062.8125 883.8125 1068.597656 892.898438 1074.808594 902.089844 L 1075.296875 902.855469 C 1095.476562 935.167969 1112.679688 972.355469 1121.191406 1007.453125 C 1133.792969 979.882812 1152.882812 955.714844 1181.347656 946.066406 Z M 1191.214844 975.726562 "/></g></g></svg>