<svg xmlns="http://www.w3.org/2000/svg" xmlns:xlink="http://www.w3.org/1999/xlink" width="1728" zoomAndPan="magnify" viewBox="0 0 1296 1727.999927" height="2304" preserveAspectRatio="xMidYMid meet" version="1.2"><defs><clipPath id="5c4aba2e12"><path d="M 1045 1037 L 1219 1037 L 1219 1176.648438 L 1045 1176.648438 Z M 1045 1037 "/></clipPath></defs><g id="da27e47885"><rect x="0" width="1296" y="0" height="1727.999927" style="fill: #00000000;fill-opacity:1;stroke:none;"/><rect x="0" width="1296" y="0" height="1727.999927" style="fill: #00000000;fill-opacity:1;stroke:none;"/><g clip-rule="nonzero" clip-path="url(#5c4aba2e12)"><path style=" stroke:none;fill-rule:nonzero;fill:#fcde57;fill-opacity:1;" d="M 1207.0625 1176.808594 C 1206.832031 1176.808594 1206.574219 1176.808594 1206.332031 1176.785156 L 1056.355469 1167.359375 C 1049.921875 1166.949219 1045.058594 1161.414062 1045.441406 1154.996094 C 1045.847656 1148.582031 1051.46875 1143.460938 1057.8125 1144.097656 L 1181.597656 1151.878906 L 1105.183594 1055.925781 C 1101.175781 1050.902344 1102.003906 1043.570312 1107.035156 1039.542969 C 1112.078125 1035.515625 1119.410156 1036.378906 1123.410156 1041.40625 L 1216.179688 1157.890625 C 1219.046875 1161.484375 1219.523438 1166.449219 1217.402344 1170.546875 C 1215.378906 1174.410156 1211.390625 1176.808594 1207.0625 1176.808594 "/></g><path style=" stroke:none;fill-rule:nonzero;fill:#fcde57;fill-opacity:1;" d="M 993.351562 642.441406 C 988.554688 642.441406 983.601562 643.0625 978.492188 644.335938 C 935.460938 654.949219 889.054688 708.164062 854.234375 762.914062 C 949.082031 750.609375 1035.234375 730.179688 1049.816406 698.078125 C 1051.566406 694.226562 1056.894531 682.511719 1033.746094 660.265625 C 1021.332031 648.335938 1008.011719 642.441406 993.351562 642.441406 Z M 1185.808594 1173.117188 C 1183.03125 1173.117188 1180.238281 1172.136719 1178.019531 1170.132812 C 1146.914062 1142.191406 1086.441406 1121.746094 1022.445312 1100.125 C 893.574219 1056.5625 733.210938 1002.375 782.527344 854.460938 C 787.828125 838.515625 797.671875 815.960938 810.929688 791.058594 C 694.691406 802.414062 583.496094 801.699219 581.300781 801.441406 L 571.457031 800.578125 C 467.882812 791.683594 192.742188 768.050781 106.878906 657.804688 C 84.753906 629.425781 76.449219 597.148438 82.183594 561.914062 C 83.21875 555.585938 89.125 551.261719 95.566406 552.285156 C 101.917969 553.324219 106.226562 559.304688 105.191406 565.660156 C 100.46875 594.632812 107.035156 620.09375 125.253906 643.492188 C 204.890625 745.703125 482.296875 769.542969 573.453125 777.375 L 583.339844 778.21875 C 610.082031 780.519531 718.765625 778.25 824.714844 766.457031 C 861.675781 703.867188 916.320312 635.679688 972.90625 621.707031 C 1001.238281 614.710938 1027.808594 622.246094 1049.898438 643.453125 C 1073.140625 665.820312 1080.253906 687.4375 1071.03125 707.730469 C 1050.78125 752.269531 946.34375 775.761719 839.078125 788.082031 C 823.359375 815.679688 811.214844 842.074219 804.636719 861.839844 C 762.660156 987.71875 898.519531 1033.648438 1029.90625 1078.027344 C 1096.257812 1100.449219 1158.917969 1121.636719 1193.597656 1152.792969 C 1198.375 1157.09375 1198.773438 1164.46875 1194.46875 1169.246094 C 1192.160156 1171.820312 1188.988281 1173.117188 1185.808594 1173.117188 "/></g></svg>