<svg xmlns="http://www.w3.org/2000/svg" xmlns:xlink="http://www.w3.org/1999/xlink" width="1728" zoomAndPan="magnify" viewBox="0 0 1296 1727.999927" height="2304" preserveAspectRatio="xMidYMid meet" version="1.2"><defs><clipPath id="b331f0e45e"><path d="M 193 353 L 1104 353 L 1104 1509.40625 L 193 1509.40625 Z M 193 353 "/></clipPath></defs><g id="6ffcd0de9f"><rect x="0" width="1296" y="0" height="1727.999927" style="fill: #00000000;fill-opacity:1;stroke:none;"/><rect x="0" width="1296" y="0" height="1727.999927" style="fill: #00000000;fill-opacity:1;stroke:none;"/><g clip-rule="nonzero" clip-path="url(#b331f0e45e)"><path style=" stroke:none;fill-rule:nonzero;fill:#000000;fill-opacity:1;" d="M 1088.625 886 C 1088.625 886 1062.597656 876.445312 1049.746094 871.832031 C 992.089844 850.085938 931.140625 812.851562 883.039062 774.300781 C 840.539062 740.363281 794.085938 691.925781 772.339844 640.855469 C 745.652344 578.578125 706.117188 449.414062 706.117188 384.175781 C 706.117188 374.289062 699.527344 365.722656 690.304688 363.085938 C 688.65625 360.453125 686.019531 357.816406 683.054688 356.167969 C 672.511719 349.90625 659.003906 353.53125 652.746094 364.074219 C 644.507812 378.246094 641.542969 396.039062 641.542969 415.148438 C 641.542969 437.554688 646.484375 462.265625 647.472656 480.386719 C 654.390625 577.917969 578.285156 667.214844 512.394531 730.148438 C 445.511719 794.070312 350.296875 854.039062 262.003906 881.386719 C 244.871094 886.660156 227.078125 892.917969 211.925781 902.144531 C 209.949219 903.132812 205.992188 905.109375 205.992188 905.109375 C 197.429688 909.0625 192.15625 917.960938 193.144531 927.1875 C 194.132812 936.742188 200.722656 944.320312 209.949219 946.625 C 209.949219 946.625 246.1875 955.523438 264.308594 959.148438 C 337.449219 973.644531 403.34375 1003.960938 451.113281 1062.609375 C 521.617188 1149.597656 549.625 1243.503906 580.921875 1348.941406 C 591.792969 1386.175781 595.75 1425.386719 600.691406 1463.609375 L 600.691406 1487 C 600.691406 1498.863281 610.246094 1508.75 622.105469 1509.078125 C 633.964844 1509.40625 644.179688 1500.183594 644.839844 1488.320312 C 644.839844 1488.320312 645.828125 1471.515625 644.839844 1461.628906 C 644.839844 1440.871094 645.496094 1420.445312 646.816406 1400.015625 C 653.734375 1290.292969 702.492188 1190.453125 773.328125 1106.433594 C 841.199219 1025.707031 940.367188 948.605469 1047.113281 935.09375 C 1059.960938 933.445312 1085.328125 928.832031 1085.328125 928.832031 C 1095.214844 926.855469 1102.460938 918.949219 1103.449219 908.734375 C 1103.78125 898.851562 1097.847656 889.292969 1088.625 886 Z M 739.0625 1077.765625 C 680.75 1146.960938 636.929688 1225.710938 615.515625 1311.378906 C 585.207031 1210.222656 553.90625 1119.28125 485.046875 1034.601562 C 434.3125 971.996094 365.453125 937.070312 288.6875 919.277344 C 378.960938 888.636719 474.835938 827.347656 543.035156 762.109375 C 605.300781 702.800781 672.511719 621.082031 688.65625 531.460938 C 702.164062 579.898438 718.308594 626.683594 731.488281 657.988281 C 756.195312 715.320312 807.261719 770.347656 855.363281 808.566406 C 897.535156 842.175781 948.933594 875.125 1000.328125 898.519531 C 898.523438 925.210938 804.957031 999.347656 739.0625 1077.765625 Z M 739.0625 1077.765625 "/></g></g></svg>