<svg xmlns="http://www.w3.org/2000/svg" xmlns:xlink="http://www.w3.org/1999/xlink" width="1728" zoomAndPan="magnify" viewBox="0 0 1296 1727.999927" height="2304" preserveAspectRatio="xMidYMid meet" version="1.2"><defs><clipPath id="9dd8f33257"><path d="M 269 358 L 1043 358 L 1043 1256 L 269 1256 Z M 269 358 "/></clipPath><clipPath id="e1be7b8666"><path d="M 555.316406 301.46875 L 1215.976562 1093.304688 L 713.234375 1512.761719 L 52.574219 720.929688 Z M 555.316406 301.46875 "/></clipPath><clipPath id="aa793f1f08"><path d="M 555.316406 301.46875 L 1215.976562 1093.304688 L 713.234375 1512.761719 L 52.574219 720.929688 Z M 555.316406 301.46875 "/></clipPath></defs><g id="af0e35dcf4"><rect x="0" width="1296" y="0" height="1727.999927" style="fill: #00000000;fill-opacity:1;stroke:none;"/><rect x="0" width="1296" y="0" height="1727.999927" style="fill: #00000000;fill-opacity:1;stroke:none;"/><g clip-rule="nonzero" clip-path="url(#9dd8f33257)"><g clip-rule="nonzero" clip-path="url(#e1be7b8666)"><g clip-rule="nonzero" clip-path="url(#aa793f1f08)"><path style=" stroke:none;fill-rule:nonzero;fill:#000000;fill-opacity:1;" d="M 881.96875 692.976562 C 891.949219 709.375 901.730469 725.9375 911.910156 742.167969 C 931.507812 773.921875 929.945312 786.15625 900.65625 805.886719 C 769.386719 894.890625 637.851562 983.777344 506.332031 1072.484375 C 497.539062 1078.476562 489.855469 1086.402344 480.382812 1090.773438 C 473.390625 1094.082031 464.410156 1092.996094 456.261719 1093.914062 C 457.941406 1085.445312 456.894531 1074.714844 461.71875 1069.007812 C 503.109375 1020.847656 544.917969 973.183594 587.664062 926.25 C 666.636719 839.671875 746.101562 753.691406 826 668.027344 C 831.980469 661.6875 842.183594 659.402344 850.449219 655.195312 Z M 556.375 1001.636719 L 559.105469 1003.898438 C 672.078125 928.648438 785.070312 853.210938 900.289062 776.417969 L 841.769531 686.320312 C 745.710938 792.535156 650.910156 897.027344 556.375 1001.636719 Z M 294.859375 923.644531 C 290.296875 924.425781 282.527344 928.21875 278.804688 925.773438 C 273.875 922.484375 268.941406 914.152344 269.453125 908.515625 C 270.949219 893.980469 273.996094 879.492188 278.554688 865.601562 C 332.554688 697.089844 400.699219 534.441406 478.222656 375.574219 C 484.316406 362.921875 492.941406 353.707031 506.554688 362.363281 C 536.546875 381.578125 565.875 402.011719 594.773438 423.144531 C 611.894531 435.601562 610.316406 450.039062 598.753906 467.421875 C 500.207031 614.398438 402.441406 761.898438 304.40625 909.289062 Z M 324.335938 805.367188 L 332.441406 810.042969 C 412.183594 688.511719 491.746094 566.964844 573.851562 441.609375 L 497.214844 393.703125 C 438.699219 533.015625 381.566406 669.148438 324.335938 805.367188 Z M 1025.066406 1252.742188 C 1018.207031 1253.589844 1011.097656 1255.148438 1004.035156 1255.152344 C 848.160156 1254.1875 692.28125 1253.222656 536.417969 1252.074219 C 525.058594 1251.964844 513.484375 1254.21875 502.4375 1252.671875 C 496.734375 1251.882812 491.820312 1245.386719 486.574219 1241.519531 C 490.292969 1236.90625 493.230469 1229.742188 497.941406 1228.335938 C 518.128906 1222.089844 538.878906 1217.726562 559.347656 1212.425781 C 700.949219 1175.515625 842.632812 1138.707031 984.234375 1101.800781 C 1034.195312 1088.707031 1040.8125 1090.589844 1042.296875 1142.160156 C 1043.308594 1175.628906 1034.847656 1209.429688 1030.4375 1243.050781 C 1030.074219 1246.042969 1027.445312 1248.738281 1025.066406 1252.742188 Z M 640.226562 1221.472656 L 639.550781 1226.910156 C 758.585938 1227.667969 877.507812 1228.6875 996.613281 1228.714844 C 1002.566406 1228.796875 1013.191406 1220.769531 1013.636719 1215.859375 C 1016.410156 1184.109375 1016.90625 1152.246094 1018.257812 1118.992188 C 887.898438 1154.257812 764.101562 1187.914062 640.226562 1221.472656 Z M 640.226562 1221.472656 "/></g></g></g></g></svg>