<svg xmlns="http://www.w3.org/2000/svg" xmlns:xlink="http://www.w3.org/1999/xlink" width="1728" zoomAndPan="magnify" viewBox="0 0 1296 1727.999927" height="2304" preserveAspectRatio="xMidYMid meet" version="1.2"><metadata><ContainsAiGeneratedContent>Yes</ContainsAiGeneratedContent></metadata><g id="a3c7c858f2"><rect x="0" width="1296" y="0" height="1727.999927" style="fill:#00000000;fill-opacity:1;stroke:none;"/><rect x="0" width="1296" y="0" height="1727.999927" style="fill:#00000000;fill-opacity:1;stroke:none;"/><path style=" stroke:none;fill-rule:nonzero;fill:#99bdd8;fill-opacity:1;" d="M 173.175781 744.035156 C 173.175781 743.328125 173.195312 742.59375 173.425781 741.910156 C 173.3125 742.640625 173.289062 743.328125 173.175781 744.035156 Z M 173.175781 744.035156 "/><path style=" stroke:none;fill-rule:nonzero;fill:#99bdd8;fill-opacity:1;" d="M 1141.371094 700.539062 C 1142.121094 704.148438 1144.269531 707.210938 1146.371094 710.132812 C 1148.269531 712.785156 1150.894531 713.699219 1153.15625 710.863281 C 1156.925781 706.25 1160.925781 700.765625 1160.054688 695.035156 C 1158.367188 683.703125 1157.472656 672.074219 1152.8125 661.269531 C 1150.78125 656.539062 1146.554688 654.894531 1141.871094 654.417969 C 1138.808594 654.097656 1135.636719 654.324219 1134.402344 657.707031 C 1132.597656 662.503906 1129.605469 667.09375 1130.359375 672.441406 C 1129.96875 677.167969 1131.339844 681.007812 1134.011719 684.683594 C 1137.460938 689.480469 1140.179688 694.667969 1141.371094 700.539062 Z M 1141.371094 700.539062 "/><path style=" stroke:none;fill-rule:nonzero;fill:#99bdd8;fill-opacity:1;" d="M 1193.84375 1072.695312 C 1191.582031 1068.859375 1188.75 1067.601562 1184.820312 1069.839844 C 1181.597656 1071.644531 1178.285156 1073.859375 1174.882812 1070.753906 C 1171.316406 1067.578125 1171.933594 1063.03125 1173.488281 1059.355469 C 1175.726562 1054.007812 1176.800781 1048.550781 1177.144531 1042.863281 C 1177.394531 1038.566406 1176.824219 1033.816406 1178.582031 1030.136719 C 1184.660156 1017.390625 1184.957031 1003.316406 1188.222656 989.929688 C 1189.960938 982.917969 1191.328125 975.746094 1192.222656 968.546875 C 1212.117188 892.089844 1215.25 809.164062 1198.253906 728.75 C 1177.875 629.605469 1126.613281 535.261719 1053.03125 463.300781 C 979.355469 391.113281 884.117188 341.972656 784.539062 323.5625 C 753.128906 317.554688 721.417969 314.996094 689.871094 314.859375 C 677.992188 313.304688 666.089844 312.003906 654.164062 310.929688 C 646.214844 310.175781 638.3125 313.054688 630.613281 312.960938 C 614.550781 312.6875 598.722656 314.722656 582.707031 315.0625 C 580.605469 315.132812 578.710938 315.75 576.949219 316.800781 C 574.347656 318.351562 571.492188 318.945312 568.476562 319.039062 C 558.972656 319.199219 549.582031 321.164062 540.308594 322.464844 C 537.703125 322.832031 535.078125 323.332031 532.449219 323.789062 C 493.25 329.890625 455.074219 339.988281 419.210938 354.449219 C 413.519531 356.59375 408.039062 358.949219 402.601562 361.390625 L 386.222656 368.886719 C 375.667969 374.34375 364.863281 379.4375 354.742188 385.515625 C 334.089844 397.027344 314.832031 410.371094 296.328125 424.214844 C 289.476562 429.515625 282.988281 435.066406 276.453125 440.617188 C 271.679688 443.953125 266.859375 447.195312 262.335938 450.941406 C 259 453.613281 255.347656 455.875 250.867188 456.628906 C 243.238281 457.933594 237.894531 464.421875 239.148438 471.980469 C 239.378906 473.191406 239.105469 474.175781 239.105469 475.316406 C 225.261719 489.480469 212.191406 504.167969 200.359375 519.566406 C 173.539062 554.449219 151.289062 591.480469 134.839844 629.492188 C 118.371094 667.550781 106.835938 706.066406 99.773438 743.898438 C 95.6875 765.898438 93.308594 787.417969 92.144531 808.546875 C 81.226562 878.863281 85.496094 945.269531 98.0625 1002.085938 C 111.402344 1063.078125 134.222656 1113.269531 156.636719 1151.851562 C 179.183594 1190.527344 201.660156 1217.847656 217.605469 1235.578125 C 225.417969 1244.738281 232.089844 1250.996094 236.316406 1255.449219 C 240.632812 1259.949219 242.871094 1262.257812 242.871094 1262.257812 C 242.871094 1262.257812 240.703125 1259.949219 236.363281 1255.449219 C 232.113281 1250.949219 225.441406 1244.667969 217.742188 1235.4375 C 201.84375 1217.621094 179.480469 1190.253906 157.207031 1151.464844 C 134.957031 1112.832031 112.453125 1062.691406 99.433594 1001.808594 C 88.535156 951.371094 84.21875 893.460938 91.164062 832.167969 C 90.660156 875.046875 95.296875 915.480469 103.382812 951.988281 C 107.449219 970.671875 112.589844 987.988281 118.1875 1004.597656 C 118.417969 1005.28125 118.554688 1005.945312 118.757812 1006.628906 C 123.898438 1023.785156 129.519531 1040.898438 136.921875 1057.457031 C 148.523438 1083.339844 158.691406 1109.636719 176.257812 1132.296875 C 177.675781 1134.125 178.199219 1136.339844 178.75 1138.554688 C 182.335938 1152.695312 189.074219 1164.964844 199.535156 1175.265625 C 204.515625 1180.132812 209.589844 1185.160156 211.347656 1192.285156 C 212.375 1196.464844 214.636719 1200.144531 217.652344 1202.632812 C 229.097656 1212.160156 235.949219 1225.546875 245.636719 1236.511719 C 260.851562 1253.738281 277.871094 1268.882812 294.410156 1284.578125 C 308.34375 1297.757812 324.269531 1308.722656 339.324219 1320.625 C 349.328125 1328.574219 360.363281 1334.492188 371.28125 1340.15625 C 389.03125 1349.433594 406.28125 1359.734375 425.71875 1366.109375 C 444.75 1372.390625 463.003906 1380.890625 482.304688 1387.035156 C 501.539062 1393.203125 520.34375 1400.328125 541.015625 1398.457031 C 547.640625 1397.90625 553.464844 1399.871094 559.085938 1403.320312 C 562.671875 1405.445312 566.601562 1406.910156 570.828125 1407.984375 C 548.441406 1406.496094 526.601562 1404.097656 506.316406 1400.125 C 445.113281 1388.472656 394.515625 1367.023438 355.425781 1345.570312 C 316.179688 1324.050781 288.355469 1302.304688 270.242188 1286.769531 C 260.828125 1279.253906 254.453125 1272.652344 249.816406 1268.585938 C 245.273438 1264.382812 242.894531 1262.257812 242.894531 1262.257812 C 242.894531 1262.257812 245.273438 1264.40625 249.726562 1268.585938 C 254.433594 1272.652344 260.761719 1279.390625 270.035156 1286.90625 C 288.195312 1302.601562 315.90625 1324.464844 355.085938 1346.164062 C 394.125 1367.820312 444.703125 1389.59375 506.019531 1401.632812 C 540.628906 1408.460938 578.914062 1411.820312 619.121094 1411.019531 C 621.175781 1411.5 623.300781 1411.890625 625.519531 1412.300781 C 638.171875 1414.402344 651.011719 1413.832031 663.667969 1414.265625 C 682.605469 1414.882812 702.160156 1418.171875 720.621094 1410.105469 C 722.242188 1409.375 724.183594 1409.535156 726.011719 1409.46875 C 746.9375 1408.257812 767.128906 1403.597656 786.824219 1396.652344 C 788.101562 1396.242188 789.519531 1396.242188 790.820312 1395.804688 C 799.59375 1393.019531 808.800781 1392.585938 817.503906 1388.542969 C 823.601562 1385.753906 828.925781 1380.089844 835.503906 1379.769531 C 854.257812 1378.808594 871.394531 1372.140625 886.628906 1362.703125 C 911.027344 1347.558594 940.222656 1340.203125 960.167969 1317.882812 C 961.011719 1316.878906 962.703125 1316.832031 963.777344 1316.101562 C 969.257812 1312.128906 976.453125 1311.101562 981.136719 1305.664062 C 988.882812 1296.753906 998.226562 1289.03125 1007.523438 1282.476562 C 1019.058594 1274.273438 1027.902344 1263.082031 1040.097656 1255.953125 C 1043.457031 1253.964844 1046.175781 1250.402344 1048.390625 1247.019531 C 1054.582031 1237.722656 1062.464844 1230.503906 1072.765625 1226.140625 C 1076.148438 1224.679688 1077.976562 1221.9375 1079.667969 1218.898438 C 1085.582031 1208.1875 1092.277344 1197.972656 1100.5 1188.8125 C 1105.617188 1183.101562 1111.398438 1177.621094 1115.53125 1171.453125 C 1121.472656 1162.632812 1126.703125 1153.472656 1134.789062 1146.347656 C 1136.320312 1144.929688 1137.121094 1141.824219 1140.042969 1143.582031 C 1142.511719 1145.113281 1141.734375 1147.738281 1140.890625 1149.773438 C 1135.269531 1162.589844 1129.398438 1175.3125 1123.871094 1188.152344 C 1120.398438 1196.285156 1114.753906 1203.777344 1112.492188 1211.863281 C 1108.769531 1225.640625 1100.292969 1236.71875 1091.910156 1246.449219 C 1085.902344 1253.464844 1079.871094 1260.546875 1073.703125 1267.488281 C 1073.75 1267.511719 1073.773438 1267.535156 1073.816406 1267.558594 C 1072.765625 1268.972656 1071.808594 1270.480469 1070.917969 1272.105469 C 1066.324219 1280.464844 1060.683594 1288.027344 1052.960938 1293.851562 C 1048.230469 1297.484375 1045.285156 1302.738281 1042.5 1307.808594 C 1039.960938 1312.402344 1040.464844 1316.878906 1046.152344 1318.179688 C 1055.472656 1320.441406 1066.257812 1322.453125 1074 1317.175781 C 1086.175781 1308.929688 1098.925781 1301.300781 1109.914062 1291.339844 C 1109.933594 1291.363281 1109.980469 1291.386719 1110.003906 1291.386719 C 1110.050781 1291.292969 1110.09375 1291.226562 1110.117188 1291.132812 C 1112.882812 1288.621094 1115.554688 1285.992188 1118.042969 1283.136719 C 1121.058594 1279.664062 1122.25 1275.894531 1122.25 1271.988281 C 1130.222656 1260.726562 1137.691406 1249.214844 1144.703125 1237.199219 C 1153.726562 1221.871094 1161.222656 1205.605469 1171.457031 1190.960938 C 1174.332031 1186.78125 1175.773438 1182.027344 1176.800781 1177.070312 C 1178.238281 1169.96875 1178.742188 1162.269531 1182.144531 1156.144531 C 1189.867188 1142.027344 1199.644531 1128.9375 1197.726562 1111.460938 C 1197.589844 1110.410156 1198.367188 1109.292969 1198.34375 1108.148438 C 1198.183594 1096.269531 1200.398438 1083.914062 1193.84375 1072.695312 Z M 675.957031 369.617188 C 682.515625 369.9375 689.070312 368.679688 695.558594 367.949219 C 712.304688 366.03125 727.542969 373.40625 743.808594 374.320312 C 757.695312 375.054688 771.152344 379.4375 785.453125 376.515625 C 794.589844 374.800781 803.660156 376.402344 811.746094 382.886719 C 817.890625 387.800781 825.429688 386.0625 831.53125 381.953125 C 834.25 380.125 836.210938 377.632812 836.257812 374.710938 C 841.308594 377.132812 846.515625 379.394531 851.496094 381.996094 C 873.976562 393.625 895.3125 407.355469 915.847656 422.15625 C 936.316406 437.03125 955.597656 453.796875 973.757812 471.226562 C 1046.769531 542.113281 1097.554688 634.632812 1118.273438 732.519531 C 1127.34375 774.601562 1130.976562 817.410156 1129.492188 859.582031 C 1128.027344 833.46875 1124.648438 807.222656 1119.1875 781.339844 C 1098.695312 682.171875 1047.570312 587.800781 973.964844 515.796875 C 900.292969 443.699219 805.03125 394.5625 705.40625 376.105469 C 687.425781 372.699219 669.332031 370.621094 651.171875 369.160156 C 659.441406 369.023438 667.6875 369.296875 675.957031 369.617188 Z M 357.050781 389.492188 C 367.078125 383.460938 377.769531 378.523438 388.300781 373.15625 L 404.542969 365.871094 C 404.542969 365.871094 404.566406 365.871094 404.589844 365.847656 C 401.023438 367.789062 397.53125 369.890625 393.851562 371.695312 C 372.195312 382.042969 350.996094 393.214844 331.121094 406.804688 C 324.175781 411.535156 316.957031 416.082031 309.601562 420.125 C 324.746094 409.226562 340.351562 398.675781 357.050781 389.492188 Z M 104.847656 951.757812 C 104.230469 948.949219 103.839844 946 103.269531 943.214844 C 104.296875 946.9375 105.03125 950.730469 106.789062 954.40625 C 107.746094 956.371094 107.816406 958.792969 108.113281 961.03125 C 108.660156 965.191406 109.667969 969.164062 110.464844 973.277344 C 108.59375 966.058594 106.445312 959.226562 104.847656 951.757812 Z M 123.578125 706.796875 C 115.699219 720.847656 114.03125 736.542969 110.511719 751.617188 C 106.011719 770.898438 105.761719 791.027344 101.535156 810.511719 C 98.882812 823.03125 99.84375 836.234375 97.789062 848.890625 C 95.296875 864.492188 97.96875 880.027344 96.941406 895.628906 C 96.828125 897.207031 97.171875 898.804688 97.855469 900.265625 C 100.414062 906.023438 101.648438 912.191406 100.964844 918.199219 C 100.484375 922.8125 100.847656 927.246094 101.214844 931.609375 C 94.75 894.394531 91.6875 853.847656 94.109375 811.082031 C 94.953125 805.554688 95.753906 800.027344 96.828125 794.429688 C 102.972656 762.289062 112.636719 729.574219 125.65625 697.113281 C 126.046875 700.449219 125.222656 703.851562 123.578125 706.796875 Z M 145.921875 643.109375 C 142.652344 651.582031 138.542969 660.105469 132.144531 666.179688 C 127.164062 670.839844 123.304688 675.5 120.632812 681.667969 C 119.535156 684.273438 119.171875 686.445312 121.316406 688.453125 C 122.78125 689.800781 123.875 691.285156 124.605469 692.839844 C 112.339844 723.292969 102.609375 753.972656 96.371094 784.195312 C 97.832031 771.015625 99.613281 757.765625 102.152344 744.285156 C 109.300781 706.777344 121.019531 668.417969 137.675781 630.703125 C 154.191406 592.988281 176.441406 556.324219 203.214844 521.757812 C 213.746094 508.167969 225.441406 495.144531 237.664062 482.488281 C 236.957031 483.90625 236.476562 485.460938 235.355469 486.488281 C 228.503906 492.859375 226.425781 501.953125 220.347656 508.578125 C 216.648438 512.53125 213.082031 516.460938 210.066406 521.1875 C 201.753906 534.117188 194.738281 547.800781 186.972656 561.027344 C 178.792969 574.847656 172.054688 589.492188 163.441406 602.972656 C 157.367188 612.519531 157.023438 624.054688 150.238281 633.148438 C 148.113281 635.980469 147.269531 639.726562 145.921875 643.109375 Z M 449.570312 1333.371094 C 443.628906 1329.238281 437.417969 1325.539062 431.019531 1322.066406 C 418.753906 1315.304688 406.050781 1308.722656 395.335938 1299.859375 C 385.902344 1292.046875 374.753906 1287.339844 365.386719 1279.664062 C 359.242188 1274.640625 351.222656 1271.304688 346.335938 1265.683594 C 334.707031 1252.277344 318.761719 1244.347656 306.859375 1231.53125 C 303.046875 1227.488281 296.558594 1226.300781 293.3125 1221.457031 C 286.070312 1210.859375 275.105469 1204.667969 265.625 1196.742188 C 255.070312 1187.808594 241.570312 1181.640625 237.230469 1166.65625 C 236.820312 1165.078125 235.21875 1163.707031 234.03125 1162.292969 C 223.457031 1150.6875 214.957031 1137.894531 207.828125 1123.867188 C 205.089844 1118.523438 205.203125 1112.011719 202.234375 1107.351562 C 197.574219 1100.109375 196.269531 1092.410156 195.128906 1084.300781 C 194.625 1080.53125 194.898438 1076.121094 192.089844 1073.289062 C 184.324219 1065.453125 185.167969 1055.8125 186.425781 1046.425781 C 187.359375 1039.847656 185.714844 1034.019531 184.597656 1027.691406 C 182.792969 1017.574219 176.808594 1009.027344 175.09375 998.976562 C 173.792969 990.867188 176.988281 981.796875 169.769531 974.992188 C 169.289062 974.488281 169.472656 973.230469 169.382812 972.339844 C 166.960938 955.550781 164.699219 938.667969 161.957031 921.832031 C 157.847656 896.453125 159.46875 870.84375 158.875 845.328125 C 158.53125 829.699219 165.269531 814.761719 164.925781 798.996094 C 164.789062 793.308594 168.535156 787.667969 167.144531 782.6875 C 165.269531 776.0625 166.296875 770.808594 169.199219 765.164062 C 169.769531 764.070312 170.296875 762.925781 170.820312 761.808594 C 161.089844 829.835938 164.972656 894.167969 177.148438 949.40625 C 190.46875 1010.421875 213.222656 1060.542969 235.675781 1099.125 C 258.203125 1137.824219 280.75 1165.167969 296.695312 1182.941406 C 304.507812 1192.101562 311.199219 1198.363281 315.402344 1202.886719 C 319.722656 1207.292969 321.9375 1209.578125 321.9375 1209.578125 C 321.9375 1209.578125 319.746094 1207.25 315.472656 1202.886719 C 311.292969 1198.339844 304.554688 1192.082031 296.855469 1182.804688 C 280.910156 1164.964844 258.566406 1137.597656 236.269531 1098.761719 C 214.019531 1060.199219 191.5625 1010.058594 178.566406 949.109375 C 165.453125 888.503906 161.59375 817.046875 175.847656 741.796875 C 176.417969 738.734375 177.195312 735.695312 177.878906 732.679688 C 180.53125 727.222656 182.65625 721.554688 182.128906 715.046875 C 182.015625 713.628906 183.066406 712.050781 183.660156 710.589844 C 187.316406 700.152344 191.496094 689.9375 194.511719 679.316406 C 196.773438 671.390625 199.605469 664.011719 204.058594 657.089844 C 208.605469 650.007812 212.992188 642.835938 216.714844 635.316406 C 224.734375 619.121094 231.863281 601.988281 243.261719 588.074219 C 255.507812 573.089844 267.566406 557.714844 282.941406 545.265625 C 291.257812 538.503906 297.3125 529.230469 305.71875 522.125 C 316.773438 512.871094 330.550781 507.023438 339.597656 495.214844 C 341.972656 492.175781 346.085938 490.714844 350.058594 490.941406 C 355.40625 491.308594 357.460938 488.382812 359.472656 484.042969 C 362.328125 477.964844 363.171875 470.335938 369.113281 466.363281 C 377.929688 460.558594 384.667969 452.539062 392.753906 446.007812 C 404.476562 436.640625 417.929688 429.628906 432.117188 425.539062 C 445.457031 421.722656 455.394531 412.3125 468.027344 407.082031 C 487.035156 399.335938 507.273438 396.230469 526.054688 388.257812 C 530.300781 386.382812 534.871094 387.023438 539.460938 388.003906 C 546.726562 389.628906 555.042969 390.359375 560.664062 386.199219 C 568.042969 380.742188 575.625 380.238281 583.917969 379.164062 C 594.996094 377.703125 605.964844 375.507812 616.972656 373.339844 C 646.078125 373.933594 675.296875 376.699219 704.261719 382.339844 C 802.539062 401.050781 896.246094 449.960938 968.503906 521.371094 C 1041.332031 592.050781 1092.300781 684.777344 1112.882812 782.664062 C 1122.863281 828.765625 1126.199219 875.777344 1123.480469 921.945312 C 1118.113281 956.351562 1109.457031 989.863281 1097.53125 1021.683594 C 1095.589844 1027.257812 1093.464844 1032.878906 1091.089844 1038.269531 L 1084.144531 1054.71875 C 1079.003906 1065.292969 1074.253906 1076.007812 1068.425781 1086.242188 C 1057.621094 1107.007812 1044.851562 1126.472656 1031.554688 1145.136719 C 1004.347656 1182.050781 973.371094 1215.3125 939.425781 1242.773438 C 905.410156 1270.324219 869.175781 1293.28125 831.804688 1310.597656 C 794.429688 1327.957031 756.371094 1340.429688 718.976562 1348.425781 C 701.269531 1352.195312 683.75 1354.871094 666.433594 1356.652344 C 637.921875 1355.578125 610.667969 1352.515625 585.378906 1347.582031 C 524.15625 1335.816406 473.601562 1314.390625 434.515625 1292.960938 C 395.292969 1271.464844 367.445312 1249.695312 349.28125 1234.207031 C 339.917969 1226.710938 333.472656 1220.066406 328.859375 1216 C 324.863281 1212.296875 322.578125 1210.171875 322.074219 1209.714844 C 322.578125 1210.195312 324.882812 1212.296875 328.859375 1216.019531 C 333.453125 1220.15625 339.847656 1226.734375 349.121094 1234.320312 C 367.214844 1249.945312 394.996094 1271.875 434.171875 1293.53125 C 473.191406 1315.210938 523.769531 1336.960938 585.039062 1349 C 606.441406 1353.246094 629.082031 1356.261719 652.839844 1357.839844 C 602.195312 1361.859375 554.265625 1358.320312 511.570312 1350.070312 C 489.683594 1345.890625 469.671875 1340.132812 450.484375 1333.898438 C 450.253906 1333.761719 449.933594 1333.578125 449.570312 1333.371094 Z M 833.335938 1342.851562 C 831.6875 1345.25 829.382812 1346.644531 826.433594 1346.554688 C 815.585938 1346.1875 806.308594 1352.035156 795.960938 1353.820312 C 784.128906 1355.828125 775.8125 1365.675781 764.296875 1369.078125 C 759.386719 1370.519531 754.863281 1371.957031 749.882812 1369.808594 C 745.976562 1368.117188 741.589844 1367.617188 737.890625 1369.101562 C 729.574219 1372.460938 720.984375 1373.601562 712.167969 1374.722656 C 696.496094 1376.730469 680.777344 1378.855469 665.0625 1379.039062 C 654.210938 1379.128906 645.550781 1381.164062 639.109375 1390.09375 C 634.976562 1395.851562 630.976562 1395.945312 625.746094 1391.054688 C 621.019531 1386.507812 614.941406 1384.363281 608.179688 1384.976562 C 605.324219 1385.230469 601.53125 1387.058594 604.339844 1389.867188 C 608.820312 1394.34375 610.28125 1399.027344 609.664062 1404.988281 C 609.503906 1406.65625 611.308594 1407.527344 612.726562 1408.347656 C 613.34375 1408.738281 614.050781 1408.851562 614.710938 1409.171875 C 604.796875 1409.332031 595.136719 1409.054688 585.472656 1408.691406 C 588.441406 1407.386719 590.953125 1404.785156 593.054688 1401.585938 C 594.746094 1399.074219 594.472656 1396.71875 591 1395.898438 C 580.742188 1393.363281 571.355469 1389.113281 563.152344 1382.328125 C 560.433594 1380.042969 557.144531 1379.128906 553.648438 1379.425781 C 548.050781 1379.839844 543.460938 1378.96875 540.71875 1373.054688 C 539.324219 1369.945312 535.875 1368.074219 532.746094 1366.976562 C 526.167969 1364.578125 519.3125 1360.742188 512.667969 1361.015625 C 500.742188 1361.402344 491.855469 1353.796875 482.03125 1350.003906 C 473.121094 1346.554688 463.960938 1341.984375 455.347656 1336.683594 C 472.984375 1342.304688 491.445312 1347.535156 511.457031 1351.441406 C 558.582031 1360.808594 612.175781 1364.488281 668.921875 1358.570312 C 708.375 1359.964844 750.15625 1357.222656 793.3125 1348.335938 C 809.097656 1345.023438 825.042969 1340.75 840.917969 1335.839844 C 838.015625 1337.578125 835.480469 1339.746094 833.335938 1342.851562 Z M 852.84375 1332.800781 C 850.671875 1332.734375 849.121094 1333.601562 847.246094 1334.035156 C 855.105469 1331.5 862.988281 1328.644531 870.890625 1325.695312 C 865.339844 1329.375 859.628906 1332.824219 852.84375 1332.800781 Z M 954 1275.507812 C 947.898438 1279.941406 941.503906 1284.097656 934.765625 1287.683594 C 931.359375 1289.582031 928.367188 1292.140625 924.1875 1292.117188 C 918.636719 1292.09375 914.773438 1295.015625 911.78125 1299.265625 C 908.425781 1304.0625 903.902344 1307.605469 898.578125 1309.730469 C 893.027344 1311.945312 887.957031 1314.800781 882.976562 1317.90625 C 852.957031 1330.21875 822.597656 1339.585938 792.714844 1345.960938 C 754.339844 1354.09375 716.851562 1357.335938 681.234375 1357.039062 C 693.9375 1355.464844 706.59375 1353.476562 719.5 1350.871094 C 757.101562 1343.011719 795.433594 1330.675781 833.058594 1313.382812 C 870.777344 1296.136719 907.375 1273.15625 941.6875 1245.535156 C 976.179688 1218.007812 1007.410156 1184.90625 1035.027344 1147.71875 C 1048.460938 1128.894531 1061.414062 1109.382812 1072.492188 1088.480469 C 1078.433594 1078.15625 1083.183594 1067.328125 1088.550781 1056.613281 L 1095.566406 1040.144531 C 1098.054688 1034.660156 1100.15625 1029.109375 1102.191406 1023.398438 C 1108.109375 1007.839844 1113.226562 991.917969 1117.566406 975.675781 C 1112.195312 1008.710938 1103.675781 1041.011719 1092.230469 1071.78125 C 1090.242188 1077.402344 1088.164062 1082.953125 1085.71875 1088.390625 L 1078.820312 1104.769531 C 1073.613281 1115.347656 1068.953125 1126.105469 1063.035156 1136.339844 C 1052.230469 1157.082031 1039.460938 1176.5 1026.1875 1195.234375 C 1004.484375 1224.726562 980.203125 1251.75 954 1275.507812 Z M 1165.425781 875.046875 C 1164.375 878.246094 1160.992188 880.347656 1160.648438 883.957031 C 1159.460938 897.367188 1158.730469 910.933594 1158.777344 924.4375 C 1158.777344 929.347656 1160.398438 934.945312 1156.5625 938.804688 C 1148.015625 947.394531 1147.355469 958.039062 1146.828125 973.6875 C 1145.480469 982.371094 1141.277344 994.957031 1135.453125 1006.996094 C 1133.785156 1010.582031 1132.390625 1014.101562 1131.84375 1017.9375 C 1128.964844 1037.195312 1122.566406 1055.128906 1112.449219 1071.78125 C 1110.734375 1074.546875 1109.660156 1077.539062 1109.914062 1080.828125 C 1110.371094 1087.363281 1107.8125 1092.617188 1103.859375 1097.621094 C 1098.648438 1104.382812 1091.957031 1110.847656 1089.261719 1118.589844 C 1084.417969 1132.980469 1075.324219 1144.882812 1068.152344 1157.699219 C 1062.304688 1168.140625 1055.40625 1179.011719 1045.515625 1186.984375 C 1044.097656 1188.105469 1042.910156 1189.589844 1042.019531 1191.121094 C 1036.535156 1200.53125 1029.179688 1207.933594 1019.539062 1213.027344 C 1017.484375 1214.125 1015.792969 1215.609375 1014.21875 1217.230469 C 1019.515625 1210.925781 1024.703125 1204.460938 1029.683594 1197.792969 C 1043.136719 1178.921875 1056.089844 1159.390625 1067.125 1138.464844 C 1073.0625 1128.230469 1077.863281 1117.402344 1083.117188 1106.644531 L 1090.242188 1090.261719 C 1092.664062 1084.667969 1094.859375 1079.183594 1096.867188 1073.359375 C 1115.144531 1025.292969 1126.15625 973.347656 1129.332031 920.210938 C 1138.992188 858.53125 1137.804688 794.085938 1124.578125 731.195312 C 1104.109375 632.121094 1052.871094 537.660156 979.425781 465.8125 C 936.613281 423.917969 886.539062 390.128906 832.695312 365.230469 C 832.488281 364.40625 831.941406 363.8125 831.871094 362.96875 C 831.644531 357.394531 828.535156 353.554688 824.128906 350.835938 C 814.738281 345.148438 805.945312 339.210938 794.839844 336.101562 C 783.921875 333.066406 772.84375 330.300781 761.921875 326.738281 C 769.074219 327.855469 776.222656 328.3125 783.351562 329.753906 C 832.441406 339.1875 880.460938 355.910156 925.285156 379.347656 C 947.714844 391.089844 969.054688 404.796875 989.589844 419.53125 C 1010.058594 434.425781 1029.292969 451.285156 1047.5 468.644531 C 1120.445312 539.554688 1171.316406 632.121094 1192.039062 729.984375 C 1207.480469 801.398438 1206.933594 875.023438 1192.632812 944.355469 C 1191.648438 930.945312 1191.238281 917.539062 1193.613281 904.289062 C 1194.4375 899.46875 1194.734375 894.761719 1194.230469 890.03125 C 1192.679688 875.230469 1190.941406 860.425781 1189.207031 845.644531 C 1188.632812 841.121094 1185.300781 839.203125 1182.285156 841.71875 C 1177.601562 845.667969 1172.527344 849.917969 1171.773438 856.359375 C 1171 863.238281 1167.503906 868.808594 1165.425781 875.046875 Z M 1165.425781 875.046875 "/></g></svg>